<svg width="13" height="9" viewBox="0 0 13 9" fill="none" xmlns="http://www.w3.org/2000/svg">
<path d="M1.62327 4.4815H3.64989C3.80092 4.46297 3.95414 4.47638 4.09969 4.52087C4.24524 4.56536 4.37989 4.63995 4.49498 4.73983C4.61007 4.83972 4.70305 4.96268 4.76792 5.10081C4.8328 5.23894 4.86814 5.38917 4.87166 5.54183C4.87166 5.99308 4.51272 6.5217 4.06496 6.5217H1.62327V4.4815ZM8.12869 0.402964H11.7823V1.62919H8.12869V0.402964ZM11.2963 4.4815H8.61098C8.64059 4.14553 8.79608 3.83334 9.04608 3.60794C9.29607 3.38254 9.62195 3.26071 9.95795 3.26704C10.2913 3.26704 10.6128 3.39127 10.8601 3.61566C11.1074 3.84006 11.2628 4.14861 11.2963 4.4815ZM8.53327 5.30105H12.9985V5.09121C13.0114 4.68711 12.9415 4.28466 12.7932 3.90875C12.6449 3.53283 12.4214 3.19145 12.1364 2.90571C11.8514 2.61997 11.511 2.39595 11.1363 2.2475C10.7616 2.09906 10.3606 2.02934 9.95795 2.04267C9.55456 2.02823 9.15252 2.09711 8.77674 2.24502C8.40097 2.39294 8.05947 2.61674 7.77341 2.90256C7.48736 3.18838 7.26285 3.53013 7.11379 3.90661C6.96474 4.28309 6.89433 4.68629 6.90692 5.09121C6.89298 5.49711 6.96236 5.90155 7.11075 6.27939C7.25915 6.65724 7.48339 7.00042 7.76953 7.2876C8.05567 7.57479 8.3976 7.79984 8.77408 7.94878C9.15055 8.09772 9.55352 8.16735 9.95795 8.15336C10.6738 8.21045 11.3839 7.98735 11.9395 7.53078C12.4951 7.07421 12.8532 6.41959 12.9387 5.70401H11.2963C11.2659 6.039 11.1117 6.35045 10.864 6.57705C10.6163 6.80365 10.2931 6.92899 9.95795 6.92838C9.55823 6.89102 9.18788 6.70167 8.92277 6.39911C8.65766 6.09656 8.51787 5.7037 8.53204 5.30105H8.53327ZM6.50418 5.70401C6.5012 5.27852 6.36661 4.86446 6.11902 4.51906C5.87143 4.17365 5.52306 3.91395 5.12206 3.77585C5.49576 3.54196 5.78379 3.19272 5.9429 2.78056C6.10202 2.3684 6.12363 1.91555 6.00449 1.49002C5.88536 1.06448 5.63191 0.689208 5.28219 0.420541C4.93247 0.151874 4.50535 0.00430945 4.06496 0H0V8.15336H4.06496C4.71129 8.15075 5.3304 7.89182 5.78731 7.433C6.24423 6.97419 6.50191 6.3527 6.50418 5.70401ZM3.64989 3.26704H1.62327V1.62919H3.64989C3.86637 1.62951 4.07395 1.71571 4.22738 1.869C4.3808 2.02228 4.46763 2.23023 4.46893 2.44749C4.46763 2.66509 4.38067 2.87335 4.22701 3.02687C4.07336 3.18039 3.86547 3.26672 3.64866 3.26704" fill="white"/>
</svg>
