<svg width="13" height="14" viewBox="0 0 13 14" fill="none" xmlns="http://www.w3.org/2000/svg">
<path d="M12.9992 2.17482C12.9796 1.60444 12.7451 1.06277 12.343 0.659137C11.941 0.255501 11.4014 0.019944 10.8331 0H2.16692C1.59848 0.0197532 1.05868 0.255226 0.656489 0.658882C0.254299 1.06254 0.0196814 1.60431 0 2.17482V10.8726C0.0196814 11.4431 0.254299 11.9849 0.656489 12.3885C1.05868 12.7922 1.59848 13.0276 2.16692 13.0474H6.5V8.11687H4.91031V5.94359H6.49923V5.09615C6.47147 4.40772 6.70947 3.7351 7.16363 3.21843C7.61779 2.70176 8.25308 2.38091 8.93711 2.32274H10.688V4.49448H8.93711C8.74445 4.49448 8.52108 4.72559 8.52108 5.07843V5.94359H10.688V8.11841H8.52108V13.0489H10.8331C11.4015 13.0292 11.9413 12.7937 12.3435 12.39C12.7457 11.9864 12.9803 11.4446 13 10.8741L12.9992 2.17482Z" fill="white"/>
</svg>
