<svg width="44" height="48" viewBox="0 0 44 48" fill="none" xmlns="http://www.w3.org/2000/svg">
<path d="M43.9807 25.0994C43.8111 24.248 43.175 23.9491 42.3921 23.8109C41.9072 23.7257 41.4505 23.7127 41.0917 23.867C40.7753 24.0041 40.6231 24.5857 40.5959 25.0595C40.51 26.5152 40.7927 27.4098 40.2305 27.6105C40.0729 27.6667 39.2389 27.631 38.9095 26.1095C38.7496 25.4129 38.7107 24.6943 38.7942 23.9847C38.7942 23.9833 38.7937 23.982 38.793 23.9808C38.7922 23.9797 38.7911 23.9788 38.7899 23.9782C36.0405 23.5333 33.3956 22.5962 30.984 21.2124C30.897 21.1628 30.8089 21.112 30.7209 21.0592C30.361 20.8466 29.9967 20.62 29.6314 20.375C29.3019 20.1549 28.9714 19.9218 28.6398 19.6725C27.9747 19.1751 27.3377 18.642 26.7315 18.0754C26.4118 17.7754 26.0933 17.4603 25.779 17.1301C25.0165 16.3424 24.3102 15.503 23.6653 14.6179C22.0355 12.3854 20.8285 9.87734 20.1032 7.21612C19.9575 6.68519 19.8499 6.22009 19.7662 5.83484C19.6172 5.1442 19.1877 5.05895 18.7234 5.05895C17.7133 5.05895 15.9997 6.85569 14.3241 10.3283C14.3231 10.3316 14.3176 10.3326 14.3165 10.3294L6.61616 0.661505C6.48227 0.460909 6.30106 0.295796 6.08826 0.180512C5.87546 0.0652288 5.63752 0.00326319 5.3951 0C4.57526 0 3.21503 0.753231 2.64636 1.71473C2.0777 2.67623 0.964286 5.69887 0.964286 10.3758C0.964286 13.9304 1.92112 15.9311 1.92112 17.2962C1.92112 17.7592 1.85915 18.4952 1.59276 19.1081C1.54274 19.2214 1.4949 19.3326 1.44705 19.4415C1.15457 20.116 0.896873 20.7203 0.734863 21.1789C0.685933 21.3181 0.645703 21.4422 0.616345 21.5523C0.614985 21.5546 0.614236 21.5572 0.614171 21.5599C0.191083 22.9663 -0.0156614 24.4281 0.000924149 25.8958V25.9401C0.00305263 26.5879 0.0572277 27.2345 0.162934 27.8738C0.170546 27.9256 0.179244 27.9764 0.187943 28.0282C0.349842 28.9556 0.593987 29.8671 0.917532 30.7519L0.943627 30.8231C1.24988 31.6768 1.6495 32.4946 2.13533 33.2619C2.24515 33.4281 2.3778 33.617 2.52676 33.822C2.53006 33.8266 2.53369 33.8309 2.53763 33.8349C2.78119 34.1684 3.07042 34.5418 3.37704 34.9292L3.37922 34.9335C4.10772 35.854 4.93625 36.8446 5.49948 37.5094V37.5104C5.81372 37.8806 6.0464 38.1504 6.1323 38.2518L6.47263 38.6619L6.47481 38.664L4.79925 42.8144C4.78354 42.8399 4.76973 42.8666 4.75793 42.8942C4.75467 42.9018 4.7525 42.9082 4.74923 42.9158L4.73619 42.9514C4.73184 42.9644 4.72858 42.9773 4.72531 42.9892C4.72004 43.0038 4.71639 43.019 4.71444 43.0345C4.71227 43.0453 4.71118 43.0561 4.709 43.0669C4.70683 43.0798 4.70574 43.0928 4.70465 43.1068C4.70139 43.1431 4.70139 43.1795 4.70465 43.2158C4.70574 43.2255 4.70683 43.2352 4.70792 43.2438C4.70903 43.258 4.71121 43.2721 4.71444 43.2859C4.71412 43.289 4.71489 43.292 4.71662 43.2946C4.71978 43.3147 4.7245 43.3345 4.73075 43.3539V43.355C4.73632 43.3749 4.74322 43.3943 4.75141 43.4133C4.75707 43.4287 4.76361 43.4439 4.77098 43.4586C4.77533 43.4683 4.77968 43.4769 4.78512 43.4867C4.79273 43.5007 4.80034 43.5136 4.80904 43.5266C4.84479 43.5843 4.88957 43.636 4.94169 43.6798C4.98914 43.7209 5.04223 43.755 5.09935 43.7812C5.11116 43.7877 5.12353 43.7932 5.13632 43.7974C5.14067 43.7985 5.14502 43.8007 5.14937 43.8018C5.16631 43.8088 5.18375 43.8146 5.20156 43.819C5.20373 43.8201 5.20591 43.8201 5.20808 43.8212C5.21977 43.8248 5.23179 43.8274 5.24396 43.8287C5.25517 43.8328 5.26687 43.8353 5.27876 43.8363C5.29724 43.8395 5.31573 43.8417 5.3353 43.8438C5.37111 43.8471 5.40714 43.8471 5.44294 43.8438C5.45501 43.8435 5.46703 43.8421 5.47882 43.8395C5.48981 43.8391 5.50074 43.8377 5.51144 43.8352C5.52884 43.832 5.54624 43.8287 5.56255 43.8244C5.56446 43.824 5.5663 43.8233 5.56798 43.8223C5.58538 43.8179 5.60278 43.8125 5.61909 43.8072L5.64627 43.7974L9.32575 42.5608L9.63998 42.455L9.82374 42.6751C9.82465 42.6747 9.82566 42.6746 9.82663 42.6748C9.82761 42.675 9.8285 42.6755 9.82918 42.6762L13.2194 46.7435L13.2216 46.7456C13.2522 46.79 13.2867 46.8315 13.3249 46.8697L13.3292 46.874L13.3347 46.8827C13.3466 46.8945 13.3575 46.9064 13.3717 46.9194C13.3858 46.9323 13.4032 46.9496 13.4206 46.9636C13.4288 46.9727 13.4379 46.981 13.4478 46.9884C13.5402 47.0651 13.6413 47.131 13.749 47.1848C13.7642 47.1924 13.7794 47.1999 13.7946 47.2064L13.8044 47.2096C13.8218 47.2161 13.8381 47.2226 13.8555 47.2301C13.8783 47.2388 13.9012 47.2463 13.924 47.2539C13.9468 47.2614 13.9697 47.269 13.9936 47.2744C14.0175 47.2798 14.0404 47.2863 14.0643 47.2916C14.1109 47.3016 14.1581 47.3088 14.2056 47.3132L14.2578 47.3165C14.2588 47.317 14.2599 47.3173 14.2611 47.3173C14.2622 47.3173 14.2633 47.317 14.2643 47.3165C14.2915 47.3186 14.3187 47.3197 14.3459 47.3197C14.5343 47.3203 14.7208 47.2825 14.8939 47.2086C14.9265 47.1935 14.9591 47.1783 14.9907 47.1611C15.0033 47.1549 15.0157 47.148 15.0276 47.1406L15.0603 47.1211C15.0843 47.1083 15.1072 47.0935 15.1288 47.0769C15.1516 47.0618 15.1733 47.0456 15.194 47.0294C15.2049 47.0208 15.2168 47.0122 15.2277 47.0024C15.2603 46.9767 15.2911 46.949 15.3201 46.9194C15.3778 46.8641 15.4298 46.8034 15.4756 46.7381L15.4876 46.7197C15.4876 46.7186 15.4887 46.7176 15.4897 46.7165L15.5582 46.6042C15.5604 46.601 15.5615 46.5978 15.5637 46.5945L20.2533 38.8809L22.2409 35.6112L22.3877 35.3705L23.1303 34.149C23.1307 34.1485 23.131 34.148 23.1312 34.1475C23.1314 34.1469 23.1315 34.1463 23.1314 34.1457C23.1312 34.1445 23.1307 34.1434 23.1299 34.1425C23.1292 34.1415 23.1282 34.1408 23.1271 34.1403C22.9748 34.1274 20.8687 33.9331 18.8311 33.059C18.8289 33.058 13.7033 40.819 13.7033 40.819L13.6946 40.8093C13.8365 40.6127 13.9235 40.3823 13.9466 40.1415C13.9696 39.9007 13.928 39.6581 13.8259 39.4385C13.7238 39.2188 13.5649 39.03 13.3654 38.8911C13.1658 38.7522 12.9328 38.6683 12.6899 38.6478C12.6562 38.6446 12.6236 38.6435 12.5899 38.6435C12.5834 38.6446 12.5768 38.6446 12.5703 38.6435H12.5681C12.5469 38.6418 12.5263 38.6359 12.5074 38.6262C12.4885 38.6165 12.4717 38.6032 12.4579 38.5871C12.4442 38.5709 12.4338 38.5523 12.4273 38.5321C12.4209 38.512 12.4185 38.4908 12.4203 38.4698C12.422 38.4454 12.4295 38.4218 12.442 38.4007L12.4648 38.3716C12.5647 38.2394 12.6391 38.0902 12.6845 37.9313C12.7091 37.8449 12.7255 37.7564 12.7334 37.6669C12.7629 37.3053 12.6467 36.9468 12.4102 36.67C12.1738 36.3933 11.8364 36.2209 11.4721 36.1907C11.289 36.1755 11.1047 36.1979 10.9306 36.2565C10.8057 36.2957 10.6873 36.3532 10.5794 36.427L10.5762 36.4302C10.5462 36.4485 10.5112 36.4568 10.4761 36.454C10.437 36.4508 10.4003 36.4336 10.3729 36.4056C10.3455 36.3777 10.3292 36.3408 10.3272 36.3018V36.3007C10.3261 36.2936 10.3261 36.2863 10.3272 36.2792C10.327 36.2766 10.3274 36.274 10.3283 36.2716C10.3346 36.1114 10.3121 35.9514 10.2619 35.799C10.1511 35.4591 9.91059 35.1759 9.59193 35.0099C9.27326 34.8439 8.90177 34.8083 8.55702 34.9108C8.53418 34.8957 8.51896 34.8892 8.51244 34.8914L15.3016 30.931C14.908 30.6051 13.6565 29.5249 13.4717 28.7803C13.4706 28.7782 13.4728 28.7749 13.4749 28.7738C13.7715 28.6388 14.0978 28.5808 14.4231 28.6055C14.5243 28.6173 14.6231 28.645 14.7156 28.6875C14.7275 28.694 14.7395 28.6983 14.7525 28.7048C14.7546 28.7067 14.7573 28.7079 14.7602 28.708C15.0081 28.8246 15.269 28.9616 15.5419 29.1127C15.5436 29.113 15.5451 29.1137 15.5463 29.1148C16.0117 29.3727 16.5096 29.6738 17.0283 29.99C17.498 30.276 17.9819 30.5738 18.4723 30.8641C18.9235 31.1306 19.378 31.3896 19.8303 31.627C20.0717 31.7544 20.3116 31.8738 20.5501 31.9853C21.4052 32.3854 22.3059 32.6814 23.2325 32.867C23.4304 32.908 23.6327 32.9468 23.8382 32.9813C24.8028 33.1459 25.7761 33.2562 26.7533 33.3116C29.1029 33.4508 31.5244 33.3224 33.3228 32.9544C36.0639 32.3943 39.1432 31.1296 40.5796 30.072C41.6552 29.3085 42.5542 28.3258 43.2163 27.1897C43.8361 26.1052 44.0731 25.5602 43.9807 25.0994ZM10.1554 36.8889C10.1521 36.8953 10.1478 36.9018 10.1445 36.9094L10.1434 36.9083C10.1478 36.9018 10.151 36.8953 10.1554 36.8889ZM9.34967 37.5309C9.35274 37.5813 9.35201 37.6318 9.3475 37.682C9.34731 37.6882 9.34658 37.6943 9.34532 37.7004V37.7025C9.3436 37.7288 9.35231 37.7547 9.36959 37.7747C9.38686 37.7946 9.41133 37.8071 9.43774 37.8094C9.45917 37.8112 9.4806 37.8059 9.49863 37.7943C9.50516 37.7899 9.51059 37.7845 9.51712 37.7802C9.65424 37.6791 9.8132 37.6112 9.9814 37.5817C10.076 37.564 10.1726 37.5592 10.2685 37.5676C10.413 37.5796 10.5539 37.6196 10.6828 37.6856C10.8118 37.7515 10.9264 37.8421 11.0201 37.952C11.1139 38.062 11.1848 38.1891 11.229 38.3263C11.2731 38.4635 11.2896 38.6079 11.2775 38.7514C11.2734 38.8075 11.2646 38.863 11.2514 38.9176C11.211 39.0854 11.1309 39.2411 11.0176 39.3719C11.0179 39.3719 11.0182 39.3721 11.0184 39.3723C11.0186 39.3725 11.0187 39.3727 11.0187 39.373C11.016 39.3746 11.0138 39.3768 11.0122 39.3795C11.002 39.3934 10.9959 39.4098 10.9948 39.427C10.9928 39.4534 11.0014 39.4795 11.0187 39.4997C11.036 39.5199 11.0606 39.5325 11.0872 39.5349C11.0919 39.5351 11.0967 39.5347 11.1013 39.5338V39.536C11.1488 39.5326 11.1964 39.5329 11.2438 39.537C11.2568 39.5381 11.2688 39.5392 11.2818 39.5414C11.5294 39.5702 11.7599 39.6813 11.9358 39.8567C12.1117 40.032 12.2227 40.2613 12.2506 40.5072C12.2584 40.5782 12.2592 40.6497 12.2528 40.7208C12.2445 40.8337 12.2176 40.9445 12.1734 41.0489L11.8331 41.1633L10.599 41.5788L9.26377 42.0277C9.13867 41.4056 8.84181 40.8302 8.40636 40.3658C7.9709 39.9015 7.41397 39.5663 6.79774 39.3978L7.32183 38.1903L7.69912 37.3194L7.8296 37.0162L8.04598 36.5187L8.00901 36.522C8.02174 36.5178 8.03485 36.5149 8.04815 36.5133C8.13628 36.4969 8.22619 36.4918 8.31563 36.4982C8.32324 36.4982 8.32977 36.4993 8.33738 36.4993C8.60325 36.5208 8.85228 36.6371 9.03838 36.8268C9.22449 37.0165 9.33507 37.2666 9.34967 37.5309ZM7.64693 36.6655C7.64802 36.6666 7.64802 36.6687 7.64911 36.6698H7.64802L7.64693 36.6655ZM10.2315 14.1765C10.2283 14.1794 10.2254 14.1827 10.2228 14.1862C10.2097 14.2024 10.1967 14.2175 10.1836 14.2337C10.0184 14.4387 9.46819 15.1315 8.98651 15.8081C8.96259 15.8405 8.93975 15.8729 8.91692 15.9063C8.75817 16.1329 8.60921 16.3542 8.48852 16.5527C8.48743 16.5538 8.48743 16.5549 8.48634 16.556C8.2156 17.0006 7.94051 17.4506 7.67738 17.92C7.67412 17.9254 7.67194 17.9308 7.66868 17.9362C7.39267 18.4202 7.14331 18.9188 6.92169 19.4297C6.92061 19.4318 6.92061 19.4329 6.91952 19.4351C6.90647 19.4631 6.89342 19.4933 6.88146 19.5225C6.88146 19.5236 6.88037 19.5236 6.87929 19.5246L6.8782 19.5257C6.87716 19.5263 6.87593 19.5266 6.87474 19.5264C6.87354 19.5262 6.87246 19.5256 6.87168 19.5246C6.7836 19.4005 5.53536 17.6308 4.88406 14.9437C4.62688 13.8948 4.49585 12.8193 4.49372 11.7398C4.51981 8.71395 5.43968 6.50282 5.50601 6.34527C5.50642 6.34432 5.5071 6.34351 5.50797 6.34294C5.50884 6.34237 5.50986 6.34207 5.5109 6.34207C5.51194 6.34207 5.51296 6.34237 5.51383 6.34294C5.5147 6.34351 5.51538 6.34432 5.51579 6.34527L9.13329 12.3474L10.2315 14.17C10.232 14.171 10.2323 14.1721 10.2323 14.1733C10.2323 14.1744 10.232 14.1755 10.2315 14.1765ZM17.2284 18.8761C17.139 18.9907 17.0085 19.0665 16.8641 19.0878C16.7197 19.109 16.5726 19.074 16.4536 18.9901C16.3347 18.9061 16.253 18.7798 16.2257 18.6375C16.1985 18.4951 16.2277 18.3479 16.3074 18.2264C16.3607 18.1531 17.6209 16.4211 19.4487 16.1837C20.3925 16.0606 21.2982 16.352 22.1398 17.0459C22.1968 17.0929 22.244 17.1507 22.2785 17.2158C22.3131 17.2809 22.3344 17.3522 22.3412 17.4255C22.348 17.4988 22.3402 17.5727 22.3182 17.643C22.2963 17.7133 22.2606 17.7787 22.2132 17.8353C22.1658 17.8919 22.1076 17.9387 22.042 17.973C21.9763 18.0073 21.9045 18.0284 21.8307 18.0352C21.7568 18.0419 21.6823 18.0342 21.6115 18.0124C21.5407 17.9906 21.4748 17.9552 21.4178 17.9081C20.8187 17.4139 20.2228 17.2142 19.5944 17.2952C18.2711 17.4667 17.2382 18.8621 17.2284 18.8761ZM21.2156 25.2106C20.3501 25.4102 19.4606 24.8588 18.9822 23.826C18.5592 22.9153 18.656 21.862 19.2377 21.2739C19.7749 20.73 20.4251 20.6297 21.1307 20.8779C21.9125 21.152 22.4083 21.9289 22.4768 22.9422C22.5584 24.1584 22.0843 25.0109 21.2156 25.2106Z" fill="white"/>
</svg>
