<svg width="13" height="14" viewBox="0 0 13 14" fill="none" xmlns="http://www.w3.org/2000/svg">
<path d="M3.61173 7.58343e-08C3.1374 -9.73069e-05 2.6677 0.093597 2.22946 0.275731C1.79123 0.457864 1.39303 0.724868 1.05763 1.06149C0.722235 1.39811 0.456201 1.79776 0.274729 2.23759C0.0932568 2.67743 -9.69534e-05 3.14884 7.55588e-08 3.6249V9.42251C-9.69534e-05 9.89856 0.0932568 10.37 0.274729 10.8098C0.456201 11.2496 0.722235 11.6493 1.05763 11.9859C1.39303 12.3225 1.79123 12.5895 2.22946 12.7717C2.6677 12.9538 3.1374 13.0475 3.61173 13.0474H9.38827C9.8626 13.0475 10.3323 12.9538 10.7705 12.7717C11.2088 12.5895 11.607 12.3225 11.9424 11.9859C12.2778 11.6493 12.5438 11.2496 12.7253 10.8098C12.9067 10.37 13.0001 9.89856 13 9.42251V3.6249C13.0001 3.1489 12.9068 2.67755 12.7253 2.23776C12.5439 1.79798 12.2779 1.39837 11.9426 1.06175C11.6073 0.72514 11.2092 0.458121 10.771 0.275943C10.3329 0.0937662 9.86328 6.58772e-08 9.38901 7.58343e-08H3.61173ZM10.8337 1.44996C10.9766 1.44996 11.1162 1.49248 11.235 1.57214C11.3538 1.6518 11.4464 1.76503 11.5011 1.8975C11.5557 2.02997 11.57 2.17574 11.5422 2.31637C11.5143 2.45701 11.4455 2.58619 11.3445 2.68758C11.2435 2.78897 11.1147 2.85801 10.9746 2.88599C10.8345 2.91396 10.6893 2.8996 10.5573 2.84473C10.4253 2.78986 10.3125 2.69694 10.2331 2.57772C10.1537 2.45849 10.1114 2.31833 10.1114 2.17494C10.1119 1.98284 10.1882 1.79878 10.3236 1.66295C10.4589 1.52712 10.6423 1.45055 10.8337 1.44996ZM6.50111 2.89992C7.21529 2.90006 7.9134 3.11276 8.50714 3.51111C9.10088 3.90946 9.5636 4.47557 9.83677 5.13785C10.1099 5.80014 10.1813 6.52885 10.0418 7.23184C9.90236 7.93483 9.55831 8.58052 9.0532 9.08726C8.54809 9.59401 7.90461 9.93904 7.20411 10.0787C6.50362 10.2184 5.77759 10.1465 5.11782 9.87207C4.45806 9.59763 3.89419 9.133 3.49753 8.53693C3.10087 7.94086 2.88924 7.24012 2.88938 6.52333C2.88948 6.04744 2.98298 5.57622 3.16455 5.1366C3.34612 4.69697 3.61219 4.29755 3.94758 3.96115C4.28297 3.62474 4.6811 3.35794 5.11924 3.17598C5.55738 2.99402 6.02694 2.90046 6.50111 2.90066V2.89992ZM6.50111 4.35062C6.07241 4.35062 5.65335 4.47823 5.29694 4.71732C4.94052 4.9564 4.66277 5.29621 4.49882 5.69376C4.33486 6.09131 4.29208 6.52873 4.37587 6.95068C4.45967 7.37264 4.66628 7.76017 4.96957 8.06426C5.27285 8.36834 5.65919 8.5753 6.0797 8.65897C6.50021 8.74264 6.936 8.69925 7.33193 8.5343C7.72787 8.36934 8.06616 8.09023 8.30401 7.73227C8.54186 7.37431 8.66858 6.95359 8.66814 6.52333C8.66805 6.23781 8.61192 5.95511 8.50296 5.69136C8.39401 5.42761 8.23436 5.18798 8.03313 4.98616C7.8319 4.78434 7.59303 4.62427 7.33017 4.51509C7.06731 4.40592 6.78559 4.34978 6.50111 4.34988" fill="white"/>
</svg>
