<svg width="415" height="65" viewBox="0 0 415 65" fill="none" xmlns="http://www.w3.org/2000/svg">
<path fill-rule="evenodd" clip-rule="evenodd" d="M415 43.5C395.479 42.9113 381.851 26.4685 367.821 18.3133C351.42 8.78012 334.47 -1.07258 306.913 0.0944512C280.18 1.22663 259.131 12.2959 238.839 22.9675C219.122 33.3359 200.12 43.329 177.311 43.468C154.094 43.6096 137.711 36.6517 121.895 29.9348C106.18 23.2608 91.0254 16.8247 70.2838 17.8264C70.0745 17.8365 69.842 17.8466 69.5869 17.8576C63.3496 18.128 43.655 18.9817 23 35C20.5 37.8227 12.4 43.468 0 43.468V64.9999H23H415V43.5Z" fill="#263DCD"/>
</svg>
