<svg width="248" height="52" viewBox="0 0 248 52" fill="none" xmlns="http://www.w3.org/2000/svg">
<path d="M35.8023 28.2224C35.8023 23.3911 30.7194 19.3148 22.6674 19.0632V18.8619C29.2097 18.6606 34.0912 15.792 34.0912 10.7595C34.0912 4.56952 27.0457 2.60684 20.6041 2.60684C17.4839 2.60684 12.5017 2.75781 9.93514 2.75781C4.70132 2.75781 0.272705 2.60684 0.272705 2.60684V3.11009C2.83929 3.11009 4.04709 4.01594 4.04709 7.58903V31.0406C4.04709 34.9659 2.83929 37.3312 0.272705 37.3312V37.8345C0.272705 37.8345 4.70132 37.6835 9.93514 37.6835C12.854 37.6835 18.4401 37.8345 21.7616 37.8345C29.109 37.8345 35.8023 35.3685 35.8023 28.2224ZM23.07 28.4237C23.07 33.5065 21.7112 37.3312 18.7924 37.3312C16.9303 37.3312 15.8232 36.4254 15.8232 32.8523V19.2141C21.3086 19.2141 23.07 24.8002 23.07 28.4237ZM15.8232 3.41204C16.2258 3.26106 16.6787 3.21074 17.0813 3.21074C20.3021 3.21074 22.0132 6.17992 22.0132 10.7595C22.0132 16.1946 19.8995 18.7109 15.8232 18.7109V3.41204Z" fill="white"/>
<path d="M54.4226 17.2011C55.882 17.2011 56.5363 18.2076 56.5363 19.5161C56.5363 20.4219 56.184 21.3278 55.9324 21.8311C56.5866 22.3846 58.046 22.8376 59.2035 22.8376C62.5753 22.8376 64.3367 20.2206 64.3367 17.5031C64.3367 14.8359 62.4243 12.6719 59.5558 12.6719C55.6304 12.6719 54.3723 16.3959 51.9567 17.2515V12.6719C51.9567 12.6719 45.5654 15.1378 37.9159 15.1378L38.1172 15.5404C39.9289 15.5404 40.7845 16.245 40.7845 18.2076V33.8588C40.7845 36.0228 39.8786 37.3815 37.9159 37.3815V37.8345C37.9159 37.8345 41.3884 37.6835 46.4209 37.6835C51.5037 37.6835 54.6239 37.8345 54.6239 37.8345V37.3815C52.9128 37.3815 51.9567 36.8783 51.9567 35.2679V17.7044C52.7619 17.5534 53.4664 17.2011 54.4226 17.2011Z" fill="white"/>
<path d="M81.3485 35.4692C80.342 35.8215 79.6878 36.1737 78.8323 36.1737C77.2722 36.1737 76.5676 34.7143 76.5676 32.3993C76.5676 29.1282 77.7251 26.2093 80.493 25.6558C80.493 25.6558 80.2917 27.0145 80.2917 29.7321C80.2917 34.1104 81.3485 35.4692 81.3485 35.4692ZM91.4639 22.7872C91.4639 15.8927 88.6457 12.6719 79.9897 12.6719C73.8501 12.6719 67.0059 15.0372 67.0059 19.2645C67.0059 21.5291 68.7672 23.0892 71.4848 23.0892C73.0952 23.0892 75.4605 22.3846 76.8193 21.3278C75.8631 19.9187 75.3598 18.6606 75.3598 16.7985C75.3598 14.7352 76.316 13.0745 78.178 13.0745C80.0401 13.0745 80.795 14.4836 80.795 17.956C80.795 21.7807 80.493 25.2028 80.493 25.2028C70.7299 25.2028 65.3451 28.2727 65.3451 33.4058C65.3451 37.2306 68.5156 38.841 72.139 38.841C76.5173 38.841 79.2349 36.4757 81.4995 35.8718C82.8583 37.9854 85.3745 38.69 88.0418 38.69C91.0613 38.69 93.5775 37.6835 94.5337 36.0228L94.3324 35.8718C93.9801 36.3247 93.3762 36.677 92.873 36.677C91.8162 36.677 90.9606 36.0228 90.9606 33.4058C90.9606 29.8831 91.4639 27.5681 91.4639 22.7872Z" fill="white"/>
<path d="M111.666 37.3815C110.558 37.3815 109.703 36.9789 109.703 35.4692V16.9998C111.011 16.5972 111.666 16.245 112.622 16.245C113.628 16.245 114.433 16.9998 114.433 18.4593V35.0163C114.433 36.7273 113.93 37.3815 112.571 37.3815V37.8345C112.571 37.8345 115.39 37.6835 120.07 37.6835C125.052 37.6835 128.373 37.8345 128.373 37.8345V37.3815C126.411 37.3815 125.606 36.9789 125.606 34.7143V19.7677C125.606 15.1378 123.291 12.6719 119.265 12.6719C115.339 12.6719 112.672 15.4901 109.703 16.5972V12.6719C109.703 12.6719 103.312 15.1378 95.6621 15.1378L95.8634 15.5404C97.6751 15.5404 98.5306 16.245 98.5306 18.2076V33.8588C98.5306 36.0228 97.6248 37.3815 95.6621 37.3815V37.8345C95.6621 37.8345 99.1345 37.6835 104.167 37.6835C109.25 37.6835 111.666 37.8345 111.666 37.8345V37.3815Z" fill="white"/>
<path d="M139.325 38.841C143.2 38.841 145.163 36.2241 147.578 34.9156L147.981 38.841C147.981 38.841 153.919 36.375 161.619 36.375L161.368 35.9724C159.556 35.9724 158.7 35.3182 158.7 33.3555V0.0905762C158.7 0.0905762 152.359 2.60684 144.66 2.60684L144.861 3.05976C146.622 3.05976 147.578 3.61334 147.578 5.42505V12.8228C146.975 12.7725 146.371 12.6719 145.767 12.6719C136.054 12.6719 130.015 18.9625 130.015 27.5178C130.015 33.8588 133.689 38.841 139.325 38.841ZM144.911 35.7208C143.603 35.7208 141.791 33.7078 141.791 25.3538C141.791 16.2953 142.898 13.0745 144.609 13.0745C146.32 13.0745 147.578 15.792 147.578 23.3408V34.513C146.32 35.0666 145.817 35.7208 144.911 35.7208Z" fill="white"/>
<path d="M179.143 37.3815C178.035 37.3815 177.18 36.9789 177.18 35.4692V12.6719C177.18 12.6719 170.789 15.1378 163.139 15.1378L163.34 15.5404C165.152 15.5404 166.008 16.245 166.008 18.2076V33.8588C166.008 36.0228 165.102 37.3815 163.139 37.3815V37.8345C163.139 37.8345 166.612 37.6835 171.644 37.6835C176.727 37.6835 179.143 37.8345 179.143 37.8345V37.3815ZM171.493 11.0111C175.368 11.0111 177.281 8.94781 177.281 6.17992C177.281 3.36171 175.368 1.19773 171.493 1.19773C167.618 1.19773 165.756 3.36171 165.756 6.17992C165.756 8.94781 167.618 11.0111 171.493 11.0111Z" fill="white"/>
<path d="M197.621 37.3815C196.514 37.3815 195.659 36.9789 195.659 35.4692V16.9998C196.967 16.5972 197.621 16.245 198.577 16.245C199.584 16.245 200.389 16.9998 200.389 18.4593V35.0163C200.389 36.7273 199.886 37.3815 198.527 37.3815V37.8345C198.527 37.8345 201.345 37.6835 206.026 37.6835C211.008 37.6835 214.329 37.8345 214.329 37.8345V37.3815C212.367 37.3815 211.561 36.9789 211.561 34.7143V19.7677C211.561 15.1378 209.246 12.6719 205.22 12.6719C201.295 12.6719 198.628 15.4901 195.659 16.5972V12.6719C195.659 12.6719 189.267 15.1378 181.618 15.1378L181.819 15.5404C183.631 15.5404 184.486 16.245 184.486 18.2076V33.8588C184.486 36.0228 183.581 37.3815 181.618 37.3815V37.8345C181.618 37.8345 185.09 37.6835 190.123 37.6835C195.206 37.6835 197.621 37.8345 197.621 37.8345V37.3815Z" fill="white"/>
<path d="M229.357 12.6719C220.953 12.6719 216.122 17.3521 216.122 22.133C216.122 26.7126 220.248 29.8831 225.633 30.5373C220.299 30.8896 216.726 32.651 216.726 36.2744C216.726 40.3004 222.312 41.7598 227.495 41.7598H230.464C234.289 41.7598 236.805 43.2696 236.805 45.7858C236.805 48.604 234.289 50.919 229.357 50.919C224.425 50.919 220.852 49.3086 220.852 45.6349C220.852 44.7793 221.104 43.5715 222.211 42.7663C221.607 42.1624 220.651 41.7095 219.041 41.7095C217.279 41.7095 215.015 42.9676 215.015 45.6349C215.015 49.4596 219.745 51.4223 227.495 51.4223C235.195 51.4223 244.555 48.4531 244.555 40.9546C244.555 36.0228 239.825 33.1542 231.32 33.1542H227.495C224.476 33.1542 223.821 32.9529 223.821 32.1477C223.821 31.3425 225.029 30.6883 228.049 30.6883C236.503 30.6883 241.335 26.1087 241.335 21.3278C241.335 18.1573 239.624 16.1443 237.057 14.6346L237.158 14.4836C240.68 15.5907 241.435 18.1573 244.203 18.1573C246.065 18.1573 247.374 17.0502 247.374 15.0875C247.374 13.779 246.468 12.3196 244.404 11.917C243.197 13.0745 241.637 13.9803 238.416 13.9803C237.661 13.9803 236.151 13.93 235.296 13.779C233.585 13.0745 231.521 12.6719 229.357 12.6719ZM228.955 30.336C227.596 30.336 226.74 27.0145 226.74 21.4285C226.74 15.1378 227.294 13.0745 228.451 13.0745C229.76 13.0745 230.666 16.4463 230.666 21.9317C230.666 28.2224 230.162 30.336 228.955 30.336Z" fill="white"/>
</svg>
