<svg width="83" height="59" viewBox="0 0 83 59" fill="none" xmlns="http://www.w3.org/2000/svg">
<path d="M11.3876 51.1743L-2.60672e-06 18.1938L23.8964 21.2405L40.4683 54.7901L11.3876 51.1743Z" fill="#E9C5CA"/>
<circle cx="72.7953" cy="52.427" r="5.79543" fill="white"/>
<path d="M60.0201 30.4365C59.5229 29.9908 60.337 28.4173 58.8793 15.6763C57.4215 2.93529 63.7681 15.1823 64.1082 17.2835C64.4482 19.3847 64.4618 21.1626 64.7169 21.0295C64.972 20.8965 66.3213 18.4077 65.9912 14.9832C65.6611 11.5587 65.9279 9.02493 66.6914 6.27048C67.4549 3.51603 69.4134 0.67415 71.0526 1.81641C72.6919 2.95867 73.813 7.86816 73.8076 9.77679C73.8022 11.6854 71.7361 17.3681 71.449 18.3402C71.1618 19.3122 74.7066 14.5068 78.0078 14.0966C81.309 13.6864 79.7572 16.757 78.9726 17.4175C78.5558 18.3457 73.8835 22.4999 70.0448 24.7843C66.206 27.0687 60.5173 30.8821 60.0201 30.4365Z" fill="#F1BABD"/>
</svg>
