<svg width="252" height="36" viewBox="0 0 252 36" fill="none" xmlns="http://www.w3.org/2000/svg">
<path d="M13.1041 26.9466C20.1834 26.9466 24.8789 22.7568 24.8789 14.0521H14.0432V16.9055H21.267C21.267 20.8786 17.5829 23.9126 13.1041 23.9126C7.8669 23.9126 3.78547 19.47 3.78547 14.1244C3.78547 8.77877 7.8669 4.2278 13.1041 4.2278C15.4519 4.2278 17.619 5.16689 19.2082 6.57552L21.4837 4.44451C19.3166 2.45797 16.391 1.19381 13.1041 1.19381C6.02484 1.19381 0.498657 7.04507 0.498657 14.1244C0.498657 21.1675 6.02484 26.9466 13.1041 26.9466Z" fill="white"/>
<path d="M36.7561 9.2122C34.5167 9.2122 32.8913 10.5125 32.0245 13.4742V9.64563H28.846V26.5131H32.0245V20.3368C32.0245 15.8942 33.3609 12.2462 36.7199 12.2462C37.3701 12.2462 38.2731 12.3907 39.176 12.8241L39.6817 9.86234C39.176 9.53727 37.948 9.2122 36.7561 9.2122Z" fill="white"/>
<path d="M55.5413 12.2823C54.4216 10.2958 52.0377 9.2122 49.5094 9.2122C44.7417 9.2122 41.0937 13.0769 41.0937 18.0613C41.0937 23.2263 44.9584 26.9466 49.3649 26.9466C52.0738 26.9466 54.4216 25.5379 55.5413 23.5153V26.5131H58.6836V9.64563H55.5413V12.2823ZM49.8345 23.9848C46.7283 23.9848 44.2722 21.2759 44.2722 18.0613C44.2722 14.8829 46.7283 12.1739 49.7984 12.1739C52.6156 12.1739 55.5413 14.5939 55.5413 18.0613C55.5413 21.4926 52.8323 23.9848 49.8345 23.9848Z" fill="white"/>
<path d="M73.327 9.2122C70.907 9.2122 68.4509 10.368 67.3312 12.2823V9.64563H64.1889V34.7121H67.3312V23.8765C68.4509 25.863 70.8348 26.9466 73.3631 26.9466C77.9863 26.9466 81.7788 23.443 81.7788 18.0974C81.7788 12.788 77.9502 9.2122 73.327 9.2122ZM73.038 23.9848C70.293 23.9848 67.3312 21.7816 67.3312 18.1336C67.3312 14.5217 70.0402 12.1739 73.038 12.1739C76.1442 12.1739 78.6003 14.7745 78.6003 18.1336C78.6003 21.5287 76.1442 23.9848 73.038 23.9848Z" fill="white"/>
<path d="M94.9043 9.2122C93.0623 9.2122 90.3172 10.1513 89.3059 12.2101V0.471436H86.1636V26.5131H89.3059V17.3751C89.3059 13.7271 92.1232 12.3184 94.4709 12.3184C96.8186 12.3184 98.5523 14.1244 98.5523 16.9416V26.5131H101.695V16.761C101.731 12.0295 99.0941 9.2122 94.9043 9.2122Z" fill="white"/>
<path d="M108.492 5.52807C109.72 5.52807 110.731 4.6251 110.731 3.43318C110.731 2.24126 109.72 1.33829 108.492 1.33829C107.3 1.33829 106.289 2.24126 106.289 3.43318C106.289 4.6251 107.3 5.52807 108.492 5.52807ZM110.081 26.5131V9.64563H106.939V26.5131H110.081Z" fill="white"/>
<path d="M123.419 26.9466C126.056 26.9466 128.368 25.9352 129.848 24.2738L127.862 22.215C126.814 23.2986 125.297 23.9848 123.528 23.9848C120.205 23.9848 117.532 21.5287 117.532 18.0613C117.532 14.5939 120.205 12.1739 123.528 12.1739C125.297 12.1739 126.814 12.8602 127.862 13.9438L129.848 11.885C128.368 10.2596 126.056 9.2122 123.419 9.2122C118.579 9.2122 114.353 12.7157 114.353 18.0613C114.353 23.4069 118.579 26.9466 123.419 26.9466Z" fill="white"/>
<path d="M143.674 1.62724V26.5131H153.318C160.397 26.5131 164.551 21.1675 164.551 14.1244C164.551 7.04507 160.397 1.62724 153.318 1.62724H143.674ZM146.961 23.4791V4.66122H153.318C158.555 4.66122 161.264 8.81489 161.264 14.1244C161.264 19.4338 158.555 23.4791 153.318 23.4791H146.961Z" fill="white"/>
<path d="M185.088 18.0252C185.088 12.6796 181.512 9.2122 176.708 9.2122C171.904 9.2122 168.04 12.6796 168.04 18.0252C168.04 23.3708 171.904 26.9466 176.708 26.9466C179.959 26.9466 182.993 25.3573 184.438 22.4317L181.729 21.3481C180.753 23.0457 178.875 23.9848 176.817 23.9848C173.927 23.9848 171.76 22.4317 171.29 19.4338H185.016C185.052 18.9643 185.088 18.4947 185.088 18.0252ZM171.326 16.7249C171.832 13.6909 173.855 12.1739 176.708 12.1739C179.489 12.1739 181.548 13.8354 181.945 16.7249H171.326Z" fill="white"/>
<path d="M194.319 26.9466C197.822 26.9466 200.856 24.96 200.856 21.8177C200.856 19.9034 199.953 17.8085 196.45 16.9416L193.957 16.3276C192.874 16.0748 191.79 15.4608 191.79 14.305C191.79 13.0047 192.874 11.9572 194.499 11.9572C195.836 11.9572 197.172 12.8241 197.208 14.1244H200.242C200.242 10.7292 197.28 9.2122 194.427 9.2122C191.032 9.2122 188.648 11.4154 188.648 14.1966C188.648 16.9055 190.273 18.278 193.091 19.0365L195.402 19.5783C196.739 19.8673 197.714 20.5174 197.714 21.7816C197.714 23.1541 196.45 24.2015 194.319 24.2015C192.26 24.2015 190.996 23.0096 190.96 21.5648H188.034C188.178 25.0323 191.285 26.9466 194.319 26.9466Z" fill="white"/>
<path d="M206.62 5.52807C207.848 5.52807 208.859 4.6251 208.859 3.43318C208.859 2.24126 207.848 1.33829 206.62 1.33829C205.428 1.33829 204.416 2.24126 204.416 3.43318C204.416 4.6251 205.428 5.52807 206.62 5.52807ZM208.209 26.5131V9.64563H205.067V26.5131H208.209Z" fill="white"/>
<path d="M227.001 12.2823C225.881 10.3319 223.497 9.2122 220.969 9.2122C216.346 9.2122 212.553 12.7157 212.553 18.0613C212.553 23.3708 216.382 26.9466 221.005 26.9466C223.425 26.9466 225.881 25.7908 227.001 23.8765V24.3821C227.001 30.0889 224.689 32.1838 220.969 32.1838C219.091 32.1838 217.104 31.1363 216.057 29.222L213.384 30.6307C215.046 33.5924 217.899 35.1455 220.969 35.1455C226.531 35.1455 230.143 32.1477 230.143 24.1654V9.64563H227.001V12.2823ZM221.258 23.9848C218.188 23.9848 215.732 21.3843 215.732 18.0252C215.732 14.63 218.188 12.1739 221.258 12.1739C224.039 12.1739 227.001 14.3772 227.001 18.0252C227.001 21.6371 224.292 23.9848 221.258 23.9848Z" fill="white"/>
<path d="M244.388 9.2122C242.546 9.2122 239.801 10.1513 238.79 12.2101V9.64563H235.648V26.5131H238.79V17.3751C238.79 13.7271 241.607 12.3184 243.955 12.3184C246.303 12.3184 248.036 14.1244 248.036 16.9416V26.5131H251.179V16.761C251.215 12.0295 248.578 9.2122 244.388 9.2122Z" fill="white"/>
</svg>
