<svg width="273" height="28" viewBox="0 0 273 28" fill="none" xmlns="http://www.w3.org/2000/svg">
<path d="M18.5993 0.260056C18.9982 0.260056 19.1976 0.509377 19.1976 1.00802C19.1976 1.15761 19.1478 1.33214 19.048 1.5316C18.8486 1.73106 18.5245 1.83079 18.0757 1.83079H17.2155L15.757 2.31696L14.8968 3.21452L8.61391 25.3543L8.8757 25.8779L9.92285 26.2145H10.8204C11.2692 26.2145 11.5684 26.3641 11.718 26.6633C11.7678 26.7381 11.7928 26.8503 11.7928 26.9999C11.7928 27.1993 11.7304 27.3739 11.6058 27.5234C11.506 27.698 11.3066 27.7852 11.0074 27.7852H0.872454C0.573267 27.6855 0.398741 27.4736 0.348877 27.1495C0.348877 26.8503 0.43614 26.6259 0.610665 26.4763C0.760259 26.3018 1.04698 26.2145 1.47083 26.2145H2.33099L3.78952 25.6909L4.64969 24.7934L10.9326 2.69095L10.6708 2.12997L9.62367 1.83079H8.7261C8.27732 1.83079 7.97814 1.68119 7.82855 1.382C7.77868 1.30721 7.75375 1.19501 7.75375 1.04542C7.75375 0.796098 7.81608 0.621572 7.94074 0.521843C8.11527 0.322385 8.36459 0.222656 8.68871 0.222656C8.7635 0.222656 8.8757 0.235123 9.02529 0.260056C9.17489 0.260056 9.28708 0.260056 9.36188 0.260056C9.51147 0.260056 9.62367 0.247589 9.69846 0.222656L18.5993 0.260056Z" fill="white"/>
<path d="M30.974 0.260056C31.2234 0.30992 31.4103 0.434581 31.535 0.634039C31.5849 0.708835 31.6098 0.833496 31.6098 1.00802C31.6098 1.10775 31.5849 1.24488 31.535 1.4194L26.374 19.5202L25.4391 23.5218V25.4291L26.2244 26.2145H28.0196L30.2261 23.9706L31.4602 21.5397C31.6098 21.3901 31.7843 21.3029 31.9838 21.2779C32.258 21.2779 32.47 21.3527 32.6196 21.5023C32.7691 21.627 32.8439 21.8638 32.8439 22.2129L31.4602 24.9804L28.6927 27.7478L28.3935 27.7852H25.6635L25.4017 27.673L23.9057 26.1397L22.6342 23.4844V19.408L24.0927 13.6487L27.0846 2.69095L26.8228 2.16737C26.374 1.91805 25.5887 1.79339 24.4667 1.79339C24.2174 1.74352 24.0304 1.59393 23.9057 1.34461C23.9057 1.31967 23.8933 1.26981 23.8683 1.19501C23.8683 1.12022 23.8683 1.05789 23.8683 1.00802C23.8683 0.908292 23.8933 0.783631 23.9431 0.634039C24.0678 0.359784 24.3421 0.222656 24.7659 0.222656H25.7757L30.974 0.260056Z" fill="white"/>
<path d="M45.8272 0.260056C46.0765 0.30992 46.2635 0.434581 46.3881 0.634039C46.438 0.708835 46.4629 0.833496 46.4629 1.00802C46.4629 1.10775 46.438 1.24488 46.3881 1.4194L41.2272 19.5202L40.2922 23.5218V25.4291L41.0776 26.2145H42.8727L45.0792 23.9706L46.3133 21.5397C46.4629 21.3901 46.6375 21.3029 46.8369 21.2779C47.1112 21.2779 47.3231 21.3527 47.4727 21.5023C47.6223 21.627 47.6971 21.8638 47.6971 22.2129L46.3133 24.9804L43.5459 27.7478L43.2467 27.7852H40.5166L40.2548 27.673L38.7589 26.1397L37.4873 23.4844V19.408L38.9459 13.6487L41.9377 2.69095L41.6759 2.16737C41.2272 1.91805 40.4418 1.79339 39.3199 1.79339C39.0705 1.74352 38.8835 1.59393 38.7589 1.34461C38.7589 1.31967 38.7464 1.26981 38.7215 1.19501C38.7215 1.12022 38.7215 1.05789 38.7215 1.00802C38.7215 0.908292 38.7464 0.783631 38.7963 0.634039C38.9209 0.359784 39.1952 0.222656 39.619 0.222656H40.6288L45.8272 0.260056Z" fill="white"/>
<path d="M56.0803 9.08606L57.5014 10.5446L58.8478 13.1625V17.3511L56.3795 23.5218V25.2795L58.212 26.2145H60.3811L62.5502 25.0926L64.9437 22.6991L67.225 19.2584L69.7307 9.27306C69.8304 9.09853 70.0049 8.98633 70.2543 8.93647H73.1339C73.3833 9.01127 73.5453 9.16086 73.6201 9.38525L73.6949 9.75923L71.077 19.034L69.9551 23.4844V25.4291L70.7778 26.2145H72.573L74.7795 23.9706L76.0136 21.5397C76.1881 21.3652 76.3627 21.2779 76.5372 21.2779C76.8613 21.2779 77.0857 21.3777 77.2104 21.5771C77.335 21.6768 77.3973 21.814 77.3973 21.9885C77.3973 22.1381 77.3849 22.2378 77.3599 22.2877L75.9762 25.0552L73.2835 27.7478L72.9843 27.7852H70.2169L69.8803 27.5982L68.4965 26.2145L67.1876 23.5218L67.1502 22.2503C66.9009 22.6243 66.502 23.1852 65.9535 23.9332L63.4104 26.4389L60.6803 27.7852H57.8006L54.9957 26.3641C54.8212 26.0649 54.5719 25.5912 54.2478 24.943C53.9486 24.2947 53.7242 23.821 53.5746 23.5218L53.612 19.2958L56.0429 13.1251V11.2552L55.2201 10.4698H53.425L51.2185 12.7137L50.0218 15.1072C49.8722 15.3067 49.6852 15.4188 49.4608 15.4438C49.012 15.3939 48.7378 15.2194 48.638 14.9202C48.6131 14.8454 48.6006 14.7581 48.6006 14.6584C48.6006 14.5338 48.6505 14.3717 48.7502 14.1722C48.85 13.9728 48.9123 13.8357 48.9372 13.7609L49.947 11.7039L52.6396 9.08606C52.6895 9.01127 52.7892 8.94894 52.9388 8.89907L55.8185 8.93647L56.0803 9.08606Z" fill="white"/>
<path d="M95.5475 10.208C95.5475 10.208 96.0337 10.6942 97.0061 11.6665C97.1307 11.8411 97.1931 12.0156 97.1931 12.1901V14.8454C97.1183 15.0947 96.9811 15.2568 96.7817 15.3316L96.5199 15.4064H93.6776C93.4532 15.3067 93.3036 15.1695 93.2288 14.995L93.154 14.621L93.1914 11.9283C93.2413 11.679 93.366 11.517 93.5654 11.4422L93.9768 11.3674L91.2841 10.4698L87.7687 10.5072L84.6646 11.5544L84.141 13.0877L84.6272 14.06L86.9833 15.2194L90.6857 16.4535L93.154 17.6877L93.4532 18.0243L94.7248 20.7169V23.5218L93.3036 26.2893L93.0418 26.4763L89.0402 27.7852H85.0386L81.1866 26.4763L79.6532 24.9804L79.541 24.6812V21.8389C79.6158 21.6394 79.753 21.4774 79.9524 21.3527L80.2142 21.2779L83.0565 21.3153C83.2559 21.3652 83.4055 21.5023 83.5053 21.7267C83.5551 22.0758 83.5801 22.6118 83.5801 23.3348C83.5801 23.9831 83.5551 24.4443 83.5053 24.7186C83.4803 24.9679 83.3681 25.1549 83.1687 25.2795L82.7573 25.3543L85.45 26.2145H88.9654L92.0321 25.1673L92.7053 22.5495L92.1069 21.3901C91.3589 20.9164 90.3741 20.4676 89.1524 20.0438C88.1551 19.7197 87.1454 19.3831 86.1231 19.034L83.5427 17.7251L83.3183 17.4259L82.0093 14.808V12.0405L82.1589 11.6665L83.6549 10.2454C84.5524 9.94622 85.9112 9.49745 87.7313 8.89907L91.6955 8.93647L95.5475 10.208Z" fill="white"/>
<path d="M113.307 1.15761L111.101 8.89907L115.252 8.93647C115.601 9.08606 115.775 9.33539 115.775 9.68444C115.775 9.93376 115.688 10.1332 115.514 10.2828C115.339 10.4324 115.065 10.5072 114.691 10.5072C114.616 10.5072 114.454 10.5072 114.205 10.5072C113.98 10.4823 113.768 10.4698 113.569 10.4698H110.614L108.071 19.5202L107.099 23.4844V25.4291L107.922 26.2145H109.717L111.923 23.9706L113.157 21.5397C113.332 21.3652 113.507 21.2779 113.681 21.2779C114.254 21.2779 114.541 21.5896 114.541 22.2129L113.157 24.9804L110.502 27.7104L110.166 27.7852H107.398L107.099 27.673L105.64 26.1771L104.331 23.5218V19.2958L105.79 13.6113L106.65 10.5072L102.424 10.4698C102.25 10.4449 102.075 10.3202 101.901 10.0958C101.851 9.89636 101.826 9.74677 101.826 9.64704C101.826 9.59717 101.863 9.49745 101.938 9.34785C102.013 9.17333 102.125 9.04867 102.275 8.97387L102.649 8.89907H107.062L109.38 0.59664C109.505 0.37225 109.667 0.260056 109.866 0.260056L112.447 0.222656C113.02 0.222656 113.307 0.534309 113.307 1.15761Z" fill="white"/>
<path d="M124.148 9.08606L125.57 10.5446L126.879 13.1625C126.879 13.3619 126.879 13.6611 126.879 14.06C126.879 14.459 126.891 14.7581 126.916 14.9576C127.14 14.5088 127.489 13.8357 127.963 12.9381L130.693 10.208L133.311 8.93647H136.228L136.49 9.08606L137.948 10.5446L138.023 10.8064V13.5739C137.973 13.8232 137.824 14.0102 137.574 14.1348C136.951 14.1847 136.527 14.2096 136.303 14.2096C135.63 14.1847 135.056 14.1722 134.583 14.1722C134.333 14.0725 134.159 13.9354 134.059 13.7609C134.009 13.1126 133.984 12.6015 133.984 12.2275V10.7316C133.984 10.6817 134.022 10.6069 134.096 10.5072L133.685 10.4698L131.516 11.5918L129.197 13.9478L126.841 18.6974L124.335 27.4113C124.186 27.6606 123.974 27.7852 123.7 27.7852H120.895C120.646 27.6855 120.483 27.511 120.409 27.2617C120.409 27.2367 120.396 27.1993 120.371 27.1495C120.371 27.0996 120.371 27.0622 120.371 27.0373C120.371 26.9375 120.409 26.8004 120.483 26.6259C120.558 26.4264 120.596 26.2768 120.596 26.1771L123.101 17.2763L124.074 13.1625V11.2552L123.288 10.4698H121.493L119.287 12.7137L118.09 15.1072C117.94 15.3067 117.753 15.4188 117.529 15.4438C117.08 15.3939 116.806 15.2194 116.706 14.9202C116.681 14.8454 116.669 14.7581 116.669 14.6584C116.669 14.5338 116.719 14.3717 116.818 14.1722C116.918 13.9728 116.98 13.8357 117.005 13.7609L118.015 11.7039L120.708 9.08606C120.758 9.01127 120.857 8.94894 121.007 8.89907L123.887 8.93647L124.148 9.08606Z" fill="white"/>
<path d="M155.012 10.2828L155.274 10.582C155.499 11.2801 155.848 12.3023 156.321 13.6487L157.593 9.27306C157.718 9.0736 157.917 8.94894 158.191 8.89907L160.996 8.93647C161.37 9.0362 161.557 9.27305 161.557 9.64704L161.445 10.208L158.79 19.4828L157.817 23.5218V25.4291L158.64 26.2145H160.435L162.642 23.9706L163.839 21.5771C164.038 21.3777 164.212 21.2779 164.362 21.2779C164.96 21.2779 165.26 21.5272 165.26 22.0259C165.26 22.1505 165.185 22.3625 165.035 22.6617L163.876 24.9804L161.108 27.7478L160.809 27.7852H158.079L157.78 27.673L156.321 26.1397L155.012 23.447V22.9608C154.788 23.4346 154.439 24.1202 153.965 25.0178L152.432 26.4763L149.852 27.7852H147.009C146.386 27.511 145.451 27.0497 144.204 26.4015L142.746 24.943L141.4 20.8665L141.437 18.1365L142.783 14.2096L145.401 10.3202L145.663 10.1706C146.66 9.89636 147.932 9.47251 149.478 8.89907L152.32 8.93647L155.012 10.2828ZM153.928 11.517L151.946 10.5072H149.926L147.832 12.6015C147.234 13.5739 146.448 15.5061 145.476 18.3983L145.439 21.8015L146.56 25.2795L147.458 26.2145H149.403L151.572 25.13L152.619 24.1202C153.143 23.2974 153.928 21.3527 154.975 18.2861L155.012 14.9202L153.928 11.517Z" fill="white"/>
<path d="M180.094 1.15761L177.888 8.89907L182.039 8.93647C182.388 9.08606 182.563 9.33539 182.563 9.68444C182.563 9.93376 182.475 10.1332 182.301 10.2828C182.126 10.4324 181.852 10.5072 181.478 10.5072C181.403 10.5072 181.241 10.5072 180.992 10.5072C180.767 10.4823 180.555 10.4698 180.356 10.4698H177.402L174.858 19.5202L173.886 23.4844V25.4291L174.709 26.2145H176.504L178.71 23.9706L179.945 21.5397C180.119 21.3652 180.294 21.2779 180.468 21.2779C181.042 21.2779 181.328 21.5896 181.328 22.2129L179.945 24.9804L177.289 27.7104L176.953 27.7852H174.185L173.886 27.673L172.428 26.1771L171.119 23.5218V19.2958L172.577 13.6113L173.437 10.5072L169.211 10.4698C169.037 10.4449 168.862 10.3202 168.688 10.0958C168.638 9.89636 168.613 9.74677 168.613 9.64704C168.613 9.59717 168.65 9.49745 168.725 9.34785C168.8 9.17333 168.912 9.04867 169.062 8.97387L169.436 8.89907H173.849L176.167 0.59664C176.292 0.37225 176.454 0.260056 176.654 0.260056L179.234 0.222656C179.807 0.222656 180.094 0.534309 180.094 1.15761Z" fill="white"/>
<path d="M195.536 0.260056C195.785 0.30992 195.972 0.434581 196.097 0.634039C196.097 0.658971 196.097 0.733767 196.097 0.858428C196.122 0.983089 196.134 1.12022 196.134 1.26981L194.713 4.03729C194.563 4.21181 194.351 4.29908 194.077 4.29908L191.459 4.26168C191.185 4.21181 191.01 4.06222 190.936 3.8129C190.911 3.76303 190.898 3.67577 190.898 3.55111C190.898 3.37658 190.936 3.21452 191.01 3.06493L192.282 0.521843C192.407 0.397183 192.581 0.30992 192.806 0.260056H195.536ZM190.936 9.08606L192.357 10.5446L193.666 13.1625V17.3511L191.235 23.5218V25.4291L192.02 26.2145H193.815L196.022 23.9706L197.256 21.5397C197.43 21.3652 197.605 21.2779 197.78 21.2779C198.353 21.2779 198.64 21.5896 198.64 22.2129L197.256 24.9804L194.601 27.7104L194.264 27.7852H191.497L191.197 27.673L189.739 26.1771L188.43 23.5218L188.467 19.2958L190.898 13.1251V11.2552L190.075 10.4698H188.28L186.074 12.7137L184.877 15.1072C184.728 15.3067 184.541 15.4188 184.316 15.4438C183.867 15.3939 183.593 15.2194 183.493 14.9202C183.468 14.8454 183.456 14.7581 183.456 14.6584C183.456 14.5338 183.506 14.3717 183.606 14.1722C183.705 13.9728 183.768 13.8357 183.793 13.7609L184.802 11.7039L187.495 9.08606C187.545 9.01127 187.645 8.94894 187.794 8.89907L190.674 8.93647L190.936 9.08606Z" fill="white"/>
<path d="M217.958 10.208C218.282 10.4573 218.818 10.9809 219.566 11.7787L220.875 15.8178V18.5478L219.566 22.4373L216.949 26.3641L216.612 26.5511L212.723 27.7852H208.721L204.869 26.4389L203.373 24.9804C203.049 24.0828 202.588 22.7115 201.989 20.8665L202.027 18.1365L203.373 14.2096L205.991 10.3202L206.253 10.1706C207.25 9.89636 208.521 9.47251 210.067 8.89907L214.069 8.93647L217.958 10.208ZM215.752 11.4796L213.77 10.5072H210.516L208.422 12.6015C207.823 13.5739 207.038 15.5061 206.066 18.3983L206.028 21.8015L207.15 25.2047L209.132 26.2145H212.349L214.48 24.1202C214.929 23.3722 215.365 22.4248 215.789 21.2779C216.138 20.3056 216.487 19.3207 216.836 18.3235V14.8454L215.752 11.4796Z" fill="white"/>
<path d="M231.756 9.08606L233.177 10.5446L234.486 13.1625C234.486 13.4617 234.498 13.898 234.523 14.4714C234.748 14.0974 235.122 13.5489 235.645 12.8259L238.263 10.2454L240.918 8.93647H243.798L246.603 10.3202L246.827 10.582L248.099 13.1625L248.061 17.3885L245.631 23.5218V25.4291L246.453 26.2145H248.248L250.455 23.9706L251.689 21.5397C251.864 21.3652 252.038 21.2779 252.213 21.2779C252.537 21.2779 252.761 21.3777 252.886 21.5771C253.011 21.6768 253.073 21.814 253.073 21.9885C253.073 22.1381 253.06 22.2378 253.035 22.2877L251.652 25.0552L248.959 27.7478L248.66 27.7852H245.892L245.556 27.5982L244.172 26.2145L242.863 23.5218V19.2958L245.294 13.1999V11.4048L243.424 10.4698H241.292L239.123 11.5918L236.73 14.0226L234.448 17.4633L231.943 27.4113C231.768 27.6606 231.569 27.7852 231.344 27.7852H228.502C228.253 27.6855 228.091 27.511 228.016 27.2617C227.991 27.2118 227.979 27.137 227.979 27.0373C227.979 26.9874 228.053 26.7007 228.203 26.1771L230.709 17.2763L231.681 13.1625V11.2552L230.896 10.4698H229.101L226.894 12.7137L225.697 15.1072C225.548 15.3067 225.361 15.4188 225.136 15.4438C224.688 15.3939 224.413 15.2194 224.314 14.9202C224.289 14.8454 224.276 14.7581 224.276 14.6584C224.276 14.6584 224.388 14.3592 224.613 13.7609L225.622 11.7039L228.315 9.08606C228.365 9.01127 228.465 8.94894 228.614 8.89907L231.494 8.93647L231.756 9.08606Z" fill="white"/>
<path d="M271.223 10.208C271.223 10.208 271.709 10.6942 272.682 11.6665C272.806 11.8411 272.869 12.0156 272.869 12.1901V14.8454C272.794 15.0947 272.657 15.2568 272.457 15.3316L272.195 15.4064H269.353C269.129 15.3067 268.979 15.1695 268.904 14.995L268.83 14.621L268.867 11.9283C268.917 11.679 269.041 11.517 269.241 11.4422L269.652 11.3674L266.96 10.4698L263.444 10.5072L260.34 11.5544L259.817 13.0877L260.303 14.06L262.659 15.2194L266.361 16.4535L268.83 17.6877L269.129 18.0243L270.4 20.7169V23.5218L268.979 26.2893L268.717 26.4763L264.716 27.7852H260.714L256.862 26.4763L255.329 24.9804L255.217 24.6812V21.8389C255.291 21.6394 255.428 21.4774 255.628 21.3527L255.89 21.2779L258.732 21.3153C258.931 21.3652 259.081 21.5023 259.181 21.7267C259.231 22.0758 259.256 22.6118 259.256 23.3348C259.256 23.9831 259.231 24.4443 259.181 24.7186C259.156 24.9679 259.044 25.1549 258.844 25.2795L258.433 25.3543L261.125 26.2145H264.641L267.708 25.1673L268.381 22.5495L267.782 21.3901C267.034 20.9164 266.05 20.4676 264.828 20.0438C263.831 19.7197 262.821 19.3831 261.799 19.034L259.218 17.7251L258.994 17.4259L257.685 14.808V12.0405L257.834 11.6665L259.33 10.2454C260.228 9.94622 261.587 9.49745 263.407 8.89907L267.371 8.93647L271.223 10.208Z" fill="white"/>
</svg>
