<svg width="199" height="55" viewBox="0 0 199 55" fill="none" xmlns="http://www.w3.org/2000/svg">
<path d="M176.056 41.7856C177.586 41.9485 179.165 41.6839 180.628 41.0202C182.092 40.3565 183.385 39.3178 184.373 38.0131C187.872 33.4608 193.034 34.5044 195.099 32.2271C197.163 29.9497 199.765 26.1574 196.737 21.9286C193.708 17.6997 187.414 17.7196 184.614 21.3616C181.815 25.0036 183.201 26.0584 179.482 28.0381C175.763 30.0177 175.508 27.8992 171.903 33.814C168.298 39.7289 176.056 41.7856 176.056 41.7856Z" fill="white"/>
<path d="M30.4781 13.9478C30.4781 16.1302 29.9132 18.1329 28.7835 19.9558C27.6538 21.7788 26.0106 23.2679 23.8538 24.4233C21.6971 25.5787 19.1295 26.2591 16.1512 26.4645L14.4951 35.7462C13.8532 39.3151 12.1073 41.0996 9.25733 41.0996C7.69112 41.0996 6.24046 40.6374 4.90533 39.7131C3.59589 38.7888 2.54319 37.3766 1.74725 35.4766C0.951314 33.5766 0.553345 31.2402 0.553345 28.4672C0.553345 23.2551 1.3878 18.8389 3.0567 15.2187C4.75128 11.5728 7.01072 8.85118 9.83502 7.0539C12.685 5.23094 15.8174 4.31946 19.2322 4.31946C21.6457 4.31946 23.6869 4.74311 25.3558 5.59039C27.0504 6.43768 28.3214 7.59308 29.1686 9.05658C30.0416 10.4944 30.4781 12.1248 30.4781 13.9478ZM16.8444 22.4977C22.1079 21.8301 24.7396 19.0957 24.7396 14.2944C24.7396 12.5998 24.1748 11.2262 23.045 10.1735C21.941 9.09509 20.2207 8.55591 17.8843 8.55591C15.2397 8.55591 12.9289 9.39036 10.9519 11.0593C9.00057 12.7282 7.48572 15.0518 6.40735 18.0302C5.35466 20.9828 4.82831 24.3592 4.82831 28.1591C4.82831 29.751 4.98236 31.1632 5.29047 32.3956C5.62425 33.628 6.03506 34.5908 6.52289 35.2841C7.0364 35.9516 7.52423 36.2854 7.98639 36.2854C8.62828 36.2854 9.11611 35.3996 9.44989 33.628L10.7208 26.349C9.71948 26.195 9.283 26.1308 9.41138 26.1564C8.64111 26.0281 8.14044 25.797 7.90936 25.4632C7.67829 25.1037 7.56275 24.6544 7.56275 24.1152C7.56275 23.5504 7.7168 23.1011 8.0249 22.7673C8.35868 22.4335 8.80801 22.2666 9.37286 22.2666C9.62962 22.2666 9.82219 22.2794 9.95056 22.3051C10.5668 22.4078 11.0418 22.472 11.3756 22.4977C11.7093 20.495 12.1843 17.8119 12.8005 14.4484C12.9546 13.5755 13.3012 12.9593 13.8404 12.5998C14.4053 12.2147 15.06 12.0221 15.8046 12.0221C16.6519 12.0221 17.2552 12.189 17.6147 12.5228C17.9998 12.8309 18.1924 13.3315 18.1924 14.0248C18.1924 14.4356 18.1667 14.7694 18.1154 15.0261L16.8444 22.4977Z" fill="white"/>
<path d="M33.0865 37.0942C31.4946 37.0942 30.2236 36.5165 29.2737 35.3611C28.3237 34.2057 27.8487 32.6908 27.8487 30.8165C27.8487 28.7625 28.3237 26.824 29.2737 25.001C30.2236 23.1524 31.4817 21.6761 33.0479 20.572C34.6398 19.4423 36.3216 18.8774 38.0932 18.8774C38.658 18.8774 39.0303 18.993 39.2101 19.2241C39.4155 19.4295 39.5824 19.8146 39.7107 20.3795C40.2499 20.2768 40.8148 20.2254 41.4053 20.2254C42.6634 20.2254 43.2925 20.6747 43.2925 21.5734C43.2925 22.1126 43.0999 23.3963 42.7148 25.4247C42.1242 28.3774 41.829 30.4314 41.829 31.5868C41.829 31.9719 41.9188 32.28 42.0985 32.5111C42.3039 32.7422 42.5607 32.8577 42.8688 32.8577C43.3566 32.8577 43.9472 32.5496 44.6404 31.9334C45.3337 31.2915 46.2708 30.2645 47.4519 28.8524C47.76 28.4929 48.1066 28.3132 48.4917 28.3132C48.8255 28.3132 49.0823 28.4672 49.262 28.7753C49.4674 29.0834 49.5701 29.5071 49.5701 30.0463C49.5701 31.0733 49.3262 31.8692 48.8384 32.4341C47.7857 33.7435 46.6688 34.8476 45.4877 35.7462C44.3066 36.6449 43.1641 37.0942 42.06 37.0942C41.2127 37.0942 40.4296 36.8118 39.7107 36.2469C39.0175 35.6564 38.4911 34.8604 38.1317 33.8591C36.7966 36.0158 35.1148 37.0942 33.0865 37.0942ZM34.4729 33.2043C35.0378 33.2043 35.577 32.8706 36.0905 32.203C36.604 31.5354 36.9763 30.6496 37.2074 29.5456L38.6324 22.4592C37.554 22.4848 36.5526 22.8957 35.6283 23.6916C34.7297 24.4619 34.0108 25.4889 33.4716 26.7726C32.9324 28.0564 32.6628 29.4172 32.6628 30.855C32.6628 31.651 32.8169 32.2415 33.125 32.6267C33.4588 33.0118 33.9081 33.2043 34.4729 33.2043Z" fill="white"/>
<path d="M68.7006 28.3132C69.0344 28.3132 69.2912 28.4672 69.4709 28.7753C69.6763 29.0834 69.779 29.5071 69.779 30.0463C69.779 31.0733 69.5351 31.8692 69.0472 32.4341C67.8919 33.8462 66.7236 34.976 65.5425 35.8232C64.3615 36.6705 62.9622 37.0942 61.3446 37.0942C59.3676 37.0942 57.7757 36.5293 56.569 35.3996C55.3622 34.2699 54.7589 32.7679 54.7589 30.8936C54.7589 29.8922 55.2724 29.1733 56.2994 28.7368C57.4291 28.249 58.2379 27.7355 58.7257 27.1963C59.2135 26.6314 59.4575 25.951 59.4575 25.1551C59.4575 24.6929 59.3548 24.3463 59.1494 24.1152C58.9696 23.8842 58.7385 23.7686 58.4561 23.7686C57.7629 23.7686 56.9926 24.2693 56.1453 25.2706C55.3237 26.272 54.5534 27.5686 53.8345 29.1605C53.1156 30.7267 52.5508 32.3442 52.14 34.0131C51.8575 35.2199 51.5237 36.0415 51.1386 36.478C50.7792 36.8888 50.2015 37.0942 49.4055 37.0942C48.6096 37.0942 48.019 36.8118 47.6339 36.2469C47.2745 35.6564 47.0305 34.7577 46.9022 33.551C46.7738 32.3442 46.7096 30.5726 46.7096 28.2361C46.7096 24.2821 47.1076 20.1612 47.9035 15.8734C48.7251 11.5856 49.919 7.99105 51.4852 5.08972C53.0771 2.16272 54.9771 0.699219 57.1852 0.699219C58.3663 0.699219 59.3162 1.21273 60.0352 2.23975C60.7797 3.24109 61.152 4.55054 61.152 6.16809C61.152 8.76131 60.3946 11.4572 58.8798 14.2559C57.3649 17.0288 54.9001 20.2768 51.4852 23.9997C51.4082 25.3348 51.3697 26.7085 51.3697 28.1206C52.6021 24.9112 54.0143 22.5875 55.6061 21.1497C57.198 19.6862 58.6872 18.9545 60.0737 18.9545C61.3574 18.9545 62.3845 19.391 63.1547 20.2639C63.9507 21.1369 64.3486 22.2153 64.3486 23.499C64.3486 24.9112 63.9892 26.2078 63.2703 27.3889C62.5514 28.5699 61.3189 29.6226 59.573 30.5469C59.6757 31.2402 59.9838 31.805 60.4973 32.2415C61.0365 32.6523 61.6784 32.8577 62.423 32.8577C63.2189 32.8577 63.9892 32.5496 64.7338 31.9334C65.4784 31.3172 66.454 30.2902 67.6608 28.8524C67.9689 28.4929 68.3155 28.3132 68.7006 28.3132ZM56.3764 4.51203C55.9142 4.51203 55.4007 5.17959 54.8359 6.51471C54.271 7.82416 53.719 9.6086 53.1798 11.868C52.6663 14.1018 52.2427 16.541 51.9089 19.1856C53.5008 17.3112 54.8102 15.27 55.8372 13.062C56.8899 10.8539 57.4163 8.85118 57.4163 7.0539C57.4163 6.23228 57.3264 5.60323 57.1467 5.16675C56.9669 4.73027 56.7102 4.51203 56.3764 4.51203Z" fill="white"/>
<path d="M83.8513 28.3132C84.1851 28.3132 84.4419 28.4672 84.6216 28.7753C84.827 29.0834 84.9297 29.5071 84.9297 30.0463C84.9297 31.0733 84.6858 31.8692 84.198 32.4341C83.248 33.5895 81.9 34.655 80.1541 35.6307C78.4338 36.6063 76.5852 37.0942 74.6082 37.0942C71.9123 37.0942 69.8197 36.3624 68.3305 34.8989C66.8414 33.4354 66.0968 31.4327 66.0968 28.8909C66.0968 27.1193 66.4691 25.476 67.2137 23.9612C67.9582 22.4207 68.9853 21.2011 70.2947 20.3024C71.6298 19.4038 73.1318 18.9545 74.8008 18.9545C76.2899 18.9545 77.4838 19.4038 78.3825 20.3024C79.2811 21.1754 79.7304 22.3693 79.7304 23.8842C79.7304 25.6558 79.0886 27.1835 77.8048 28.4672C76.5467 29.7253 74.4028 30.7267 71.3731 31.4713C72.015 32.6523 73.2345 33.2429 75.0318 33.2429C76.1872 33.2429 77.4967 32.8449 78.9602 32.049C80.4494 31.2273 81.7331 30.1618 82.8115 28.8524C83.1196 28.4929 83.4662 28.3132 83.8513 28.3132ZM74.146 22.7288C73.196 22.7288 72.3873 23.2808 71.7197 24.3848C71.0778 25.4889 70.7569 26.824 70.7569 28.3902V28.4672C72.2717 28.1078 73.4656 27.5686 74.3386 26.8497C75.2116 26.1308 75.648 25.2963 75.648 24.3463C75.648 23.8585 75.5068 23.4734 75.2244 23.1909C74.9676 22.8828 74.6082 22.7288 74.146 22.7288Z" fill="white"/>
<path d="M101.325 28.3902C101.658 28.3902 101.915 28.5571 102.095 28.8909C102.3 29.199 102.403 29.5969 102.403 30.0848C102.403 30.6753 102.313 31.1375 102.133 31.4713C101.954 31.805 101.671 32.1003 101.286 32.3571C99.078 33.8462 97.4604 34.9503 96.4334 35.6692L93.9686 37.3253C92.9929 42.6401 91.7091 46.8123 90.1173 49.842C88.5511 52.8974 86.5484 54.4251 84.1092 54.4251C82.7998 54.4251 81.7342 54.0143 80.9126 53.1927C80.091 52.3968 79.6802 51.3441 79.6802 50.0346C79.6802 48.2117 80.3991 46.2475 81.8369 44.1421C83.2748 42.0624 85.9707 39.4948 89.9247 36.4395L90.1558 34.9374C89.7193 35.6307 89.1416 36.1699 88.4227 36.555C87.7294 36.9145 87.0362 37.0942 86.343 37.0942C84.7511 37.0942 83.4802 36.5165 82.5302 35.3611C81.5802 34.2057 81.1052 32.6908 81.1052 30.8165C81.1052 28.7625 81.5802 26.824 82.5302 25.001C83.4802 23.1524 84.7383 21.6761 86.3045 20.572C87.8963 19.4423 89.5781 18.8774 91.3497 18.8774C91.9145 18.8774 92.2868 18.993 92.4666 19.2241C92.672 19.4295 92.8389 19.8146 92.9672 20.3795C93.4551 20.2768 94.0199 20.2254 94.6618 20.2254C95.3037 20.2254 95.753 20.3281 96.0098 20.5335C96.2922 20.7132 96.4334 21.0855 96.4334 21.6504C96.4334 21.9585 96.4206 22.2024 96.3949 22.3821C96.2922 23.1781 95.9713 25.1936 95.4321 28.4287C95.3294 29.0449 95.2138 29.7253 95.0855 30.4699C94.9828 31.1888 94.8672 31.9591 94.7388 32.7807C96.7159 31.2402 98.6158 29.8794 100.439 28.6983C100.773 28.4929 101.068 28.3902 101.325 28.3902ZM87.7294 33.2043C88.32 33.2043 88.8848 32.8449 89.424 32.126C89.9632 31.4071 90.3483 30.38 90.5794 29.0449L91.8118 22.4592C90.7591 22.4848 89.7835 22.8957 88.8848 23.6916C87.9862 24.4619 87.2673 25.4889 86.7281 26.7726C86.1889 28.0564 85.9193 29.4172 85.9193 30.855C85.9193 31.651 86.0734 32.2415 86.3815 32.6267C86.7153 33.0118 87.1646 33.2043 87.7294 33.2043ZM84.5329 50.6893C85.1747 50.6893 85.8937 49.9191 86.6896 48.3785C87.5112 46.838 88.2943 44.386 89.0389 41.0225C87.0619 42.7171 85.6369 44.2448 84.7639 45.6056C83.891 46.9664 83.4545 48.1603 83.4545 49.1873C83.4545 49.6238 83.5315 49.9833 83.6856 50.2657C83.8653 50.5481 84.1477 50.6893 84.5329 50.6893Z" fill="white"/>
<path d="M104.667 16.4126C103.588 16.4126 102.779 16.1687 102.24 15.6809C101.701 15.1673 101.431 14.4613 101.431 13.5626C101.431 12.664 101.778 11.9194 102.471 11.3289C103.19 10.7126 104.076 10.4045 105.129 10.4045C106.079 10.4045 106.849 10.6356 107.439 11.0978C108.03 11.5599 108.325 12.2147 108.325 13.062C108.325 14.089 107.991 14.9106 107.324 15.5268C106.656 16.1173 105.771 16.4126 104.667 16.4126ZM104.358 37.0942C102.69 37.0942 101.47 36.5036 100.7 35.3226C99.9551 34.1415 99.5828 32.5753 99.5828 30.624C99.5828 29.4686 99.724 27.9922 100.006 26.195C100.315 24.372 100.7 22.6774 101.162 21.1112C101.393 20.2896 101.701 19.7247 102.086 19.4166C102.471 19.1085 103.087 18.9545 103.935 18.9545C105.244 18.9545 105.899 19.391 105.899 20.2639C105.899 20.9058 105.655 22.395 105.167 24.7314C104.551 27.5557 104.243 29.4686 104.243 30.4699C104.243 31.2402 104.346 31.8307 104.551 32.2415C104.756 32.6523 105.103 32.8577 105.591 32.8577C106.053 32.8577 106.631 32.5368 107.324 31.8949C108.017 31.253 108.941 30.2388 110.097 28.8524C110.405 28.4929 110.752 28.3132 111.137 28.3132C111.471 28.3132 111.727 28.4672 111.907 28.7753C112.112 29.0834 112.215 29.5071 112.215 30.0463C112.215 31.0733 111.971 31.8692 111.483 32.4341C108.941 35.5408 106.567 37.0942 104.358 37.0942Z" fill="white"/>
<path d="M111.834 37.0942C110.858 37.0942 110.165 36.5807 109.754 35.5537C109.369 34.5266 109.176 32.8834 109.176 30.624C109.176 27.2862 109.651 24.1152 110.601 21.1112C110.832 20.3666 111.205 19.8274 111.718 19.4937C112.257 19.1342 113.002 18.9545 113.952 18.9545C114.465 18.9545 114.825 19.0187 115.03 19.147C115.236 19.2754 115.338 19.5193 115.338 19.8788C115.338 20.2896 115.146 21.2139 114.761 22.6517C114.504 23.6788 114.298 24.5774 114.144 25.3477C113.99 26.1179 113.862 27.0679 113.759 28.1976C114.607 25.9895 115.557 24.1923 116.609 22.8058C117.662 21.4193 118.689 20.4308 119.69 19.8403C120.717 19.2497 121.654 18.9545 122.502 18.9545C124.171 18.9545 125.005 19.7889 125.005 21.4578C125.005 22.4592 124.723 24.2693 124.158 26.8882C123.67 29.122 123.426 30.5983 123.426 31.3172C123.426 32.3442 123.798 32.8577 124.543 32.8577C125.056 32.8577 125.66 32.5496 126.353 31.9334C127.072 31.2915 128.022 30.2645 129.203 28.8524C129.511 28.4929 129.858 28.3132 130.243 28.3132C130.577 28.3132 130.833 28.4672 131.013 28.7753C131.219 29.0834 131.321 29.5071 131.321 30.0463C131.321 31.0733 131.077 31.8692 130.59 32.4341C129.485 33.7949 128.292 34.9118 127.008 35.7847C125.75 36.6577 124.312 37.0942 122.694 37.0942C121.385 37.0942 120.396 36.7219 119.729 35.9773C119.061 35.207 118.727 34.103 118.727 32.6652C118.727 31.9463 118.907 30.6625 119.267 28.8138C119.6 27.1963 119.767 26.0794 119.767 25.4632C119.767 25.0524 119.626 24.847 119.344 24.847C119.01 24.847 118.535 25.2835 117.919 26.1564C117.328 27.0037 116.712 28.1334 116.07 29.5456C115.454 30.9577 114.953 32.4469 114.568 34.0131C114.286 35.2199 113.952 36.0415 113.567 36.478C113.207 36.8888 112.63 37.0942 111.834 37.0942Z" fill="white"/>
<path d="M141.261 20.2254C141.903 20.2254 142.352 20.3281 142.609 20.5335C142.892 20.7132 143.033 21.0855 143.033 21.6504C143.033 21.9585 143.02 22.2024 142.994 22.3821C142.892 23.1781 142.571 25.2321 142.032 28.5443C141.646 30.778 141.402 32.2544 141.3 32.9733C140.324 39.5975 139.002 44.8225 137.333 48.6481C135.69 52.4995 133.482 54.4251 130.709 54.4251C129.399 54.4251 128.334 54.0143 127.512 53.1927C126.69 52.3968 126.28 51.3441 126.28 50.0346C126.28 48.2117 126.999 46.2475 128.436 44.1421C129.874 42.0624 132.57 39.4948 136.524 36.4395L136.755 34.9374C136.319 35.6307 135.741 36.1699 135.022 36.555C134.329 36.9145 133.636 37.0942 132.942 37.0942C131.351 37.0942 130.08 36.5165 129.13 35.3611C128.18 34.2057 127.705 32.6908 127.705 30.8165C127.705 28.7625 128.18 26.824 129.13 25.001C130.08 23.1524 131.338 21.6761 132.904 20.572C134.496 19.4423 136.178 18.8774 137.949 18.8774C138.514 18.8774 138.886 18.993 139.066 19.2241C139.271 19.4295 139.438 19.8146 139.567 20.3795C140.055 20.2768 140.619 20.2254 141.261 20.2254ZM134.329 33.2043C134.919 33.2043 135.484 32.8449 136.023 32.126C136.563 31.4071 136.948 30.38 137.179 29.0449L138.411 22.4592C137.359 22.4848 136.383 22.8957 135.484 23.6916C134.586 24.4619 133.867 25.4889 133.328 26.7726C132.788 28.0564 132.519 29.4172 132.519 30.855C132.519 31.651 132.673 32.2415 132.981 32.6267C133.315 33.0118 133.764 33.2043 134.329 33.2043ZM131.132 50.6893C131.774 50.6893 132.493 49.9191 133.289 48.3785C134.111 46.838 134.894 44.386 135.638 41.0225C133.661 42.7171 132.236 44.2448 131.363 45.6056C130.49 46.9664 130.054 48.1603 130.054 49.1873C130.054 49.6238 130.131 49.9833 130.285 50.2657C130.465 50.5481 130.747 50.6893 131.132 50.6893Z" fill="white"/>
</svg>
