<svg width="246" height="90" viewBox="0 0 246 90" fill="none" xmlns="http://www.w3.org/2000/svg">
<path d="M12.2825 20.2353C19.5195 20.2353 24.2076 16.412 24.2076 11.0867C24.2076 5.44278 18.7912 2.43875 12.6921 2.43875H0.812572V3.07597C3.90763 3.62215 4.90898 5.67036 4.90898 10.7226V25.1055C4.90898 30.4763 3.8166 33.1618 0.676025 33.6624V34.2997C3.04284 34.1176 5.13655 34.0721 7.23027 34.0721C9.3695 34.0721 11.4632 34.1176 13.739 34.2997V33.6624C10.0978 33.1618 8.55022 30.7039 8.55022 25.0145V20.2353H12.2825ZM12.328 3.44009C16.6975 3.44009 19.7926 6.08 19.7926 11.0412C19.7926 15.8658 16.9251 19.143 12.146 19.143H8.55022V3.57664C9.73363 3.44009 11.3267 3.44009 12.328 3.44009Z" fill="white"/>
<path d="M47.1361 26.3344V11.9515C44.8148 12.2701 42.448 12.3156 40.3998 12.3156V12.9528C42.6755 13.1349 43.5403 15.0466 43.5403 18.6423V25.6062C43.5403 29.8391 40.1267 33.3893 37.3047 33.3893C34.6648 33.3893 33.4359 30.886 33.4359 26.562V11.9515C31.2511 12.3156 28.6567 12.4067 26.9271 12.4067V13.0439C28.3836 13.3625 29.8401 14.2728 29.8401 17.914V26.5165C29.8401 32.0239 31.9339 34.8003 36.2123 34.8003C39.8536 34.8003 42.539 32.297 43.9045 28.7468C43.8134 29.4295 43.7679 30.0667 43.7679 30.5219C43.7679 31.8873 44.0865 33.2983 44.4506 34.6183C46.1347 34.2541 47.9553 33.9811 50.7318 33.9811V33.3438C48.0009 33.1163 47.1361 30.5674 47.1361 26.3344Z" fill="white"/>
<path d="M66.36 11.6784C63.4925 11.6784 60.9436 13.0894 59.6237 15.4107C59.8057 14.5004 59.8513 13.499 59.8513 12.6798V0.845703C57.4845 1.25534 55.0266 1.39189 53.0239 1.39189V1.98359C55.2997 2.3022 56.301 3.71318 56.301 7.39995V27.882C56.301 30.6584 55.6183 32.6156 54.2073 34.3907L54.5715 34.8458C56.3921 33.8445 57.621 32.9342 58.8954 31.7508C60.3064 33.6624 62.6732 34.8003 65.3131 34.8003C70.4564 34.8003 75.3721 30.5674 75.3721 22.6932C75.3721 15.3197 71.0026 11.6784 66.36 11.6784ZM65.1766 33.89C61.6719 33.89 59.8513 30.5674 59.8513 26.1069V16.7762C60.8526 14.4549 63.0829 12.9073 65.3131 12.9073C68.4992 12.9073 71.0936 15.9569 71.0936 23.2394C71.0936 29.7026 69.0454 33.89 65.1766 33.89Z" fill="white"/>
<path d="M78.4063 34.2997C80.1359 34.1176 81.82 34.0721 83.5041 34.0721C85.2337 34.0721 87.0088 34.1176 88.7839 34.2997V33.6624C86.1895 33.2528 85.4157 31.9328 85.4157 28.4281V0.845703C83.14 1.25534 80.2725 1.39189 78.4519 1.39189V2.02911C80.8642 2.34772 81.82 4.12282 81.82 7.39995V28.4281C81.82 31.8873 80.4545 33.2983 78.4063 33.6624V34.2997Z" fill="white"/>
<path d="M96.1297 7.71855C97.4951 7.71855 98.633 6.62618 98.633 5.26072C98.633 3.89525 97.4951 2.75736 96.1297 2.75736C94.7642 2.75736 93.6263 3.89525 93.6263 5.26072C93.6263 6.62618 94.7642 7.71855 96.1297 7.71855ZM91.305 34.2997C92.9436 34.1631 94.7187 34.0721 96.4938 34.0721C98.2689 34.0721 100.044 34.1631 101.592 34.2997V33.6624C99.5433 33.2073 98.2234 31.9328 98.2234 28.4281V11.9515C95.9931 12.3156 93.4443 12.4067 91.3961 12.4067V13.0439C93.5808 13.3625 94.7642 15.1831 94.7642 18.4602V28.4281C94.7642 31.8873 93.1256 33.2528 91.305 33.6624V34.2997Z" fill="white"/>
<path d="M114.837 34.8003C118.979 34.8003 122.302 32.1149 123.212 27.7454L122.256 27.5178C120.936 32.2515 117.614 33.4804 115.247 33.4804C111.287 33.4804 109.284 29.8846 109.284 23.2849C109.284 15.5017 111.97 12.5887 114.837 12.5887C117.705 12.5887 119.707 15.4562 120.982 20.3264H121.619C122.211 18.6878 122.712 17.0037 123.121 15.3197C121.574 13.2715 119.116 11.6784 115.292 11.6784C109.466 11.6784 104.96 16.3665 104.96 23.4214C104.96 29.9757 108.966 34.8003 114.837 34.8003Z" fill="white"/>
<path d="M144.018 27.6999V19.5071C144.018 14.3638 141.287 11.6784 136.372 11.6784C132.184 11.6784 129.271 13.408 127.997 16.2755C128.77 17.6865 129.59 18.9609 130.546 20.1898L131.183 20.0078C131.319 15.9569 132.594 12.4522 136.007 12.4522C139.011 12.4522 140.286 15.2741 140.286 19.1885V21.8284C133.322 22.1015 127.086 24.1042 127.086 29.4295C127.086 33.0252 129.999 34.8003 133.003 34.8003C136.417 34.8003 139.33 32.2515 140.513 28.9743C140.422 29.475 140.377 30.0667 140.377 30.6584C140.377 31.7508 140.559 33.2073 140.878 34.5728C142.88 34.2997 144.61 34.2541 147.204 34.2997V33.6624C144.837 33.2073 144.018 31.6142 144.018 27.6999ZM134.187 33.4804C132.23 33.4804 131.137 31.8418 131.137 29.0199C131.137 24.5593 133.868 23.0118 140.286 22.6477V26.1524C140.286 29.0654 137.236 33.4804 134.187 33.4804Z" fill="white"/>
<path d="M162.729 30.1577C161.637 31.8418 159.953 33.2983 158.542 33.2983C157.04 33.2983 156.585 31.9784 156.585 28.8378V13.408H162.001V12.4067H156.676V4.85107H155.993C155.174 8.40129 152.488 12.4977 149.211 13.0439V13.6811H152.898V29.0199C152.898 32.2515 153.808 34.8003 156.903 34.8003C159.225 34.8003 161.819 33.3893 163.412 30.5219L162.729 30.1577Z" fill="white"/>
<path d="M170.404 7.71855C171.769 7.71855 172.907 6.62618 172.907 5.26072C172.907 3.89525 171.769 2.75736 170.404 2.75736C169.038 2.75736 167.9 3.89525 167.9 5.26072C167.9 6.62618 169.038 7.71855 170.404 7.71855ZM165.579 34.2997C167.218 34.1631 168.993 34.0721 170.768 34.0721C172.543 34.0721 174.318 34.1631 175.866 34.2997V33.6624C173.817 33.2073 172.497 31.9328 172.497 28.4281V11.9515C170.267 12.3156 167.718 12.4067 165.67 12.4067V13.0439C167.855 13.3625 169.038 15.1831 169.038 18.4602V28.4281C169.038 31.8873 167.4 33.2528 165.579 33.6624V34.2997Z" fill="white"/>
<path d="M189.43 34.8003C195.438 34.8003 199.625 30.1577 199.625 23.2394C199.625 16.3665 195.438 11.6784 189.43 11.6784C183.422 11.6784 179.234 16.3665 179.234 23.2394C179.234 30.1577 183.422 34.8003 189.43 34.8003ZM189.43 33.9811C185.88 33.9811 183.558 30.5674 183.558 23.2394C183.558 15.9114 185.88 12.4522 189.43 12.4522C193.026 12.4522 195.347 15.9114 195.347 23.2394C195.347 30.5674 193.026 33.9811 189.43 33.9811Z" fill="white"/>
<path d="M224.398 28.3371V19.5526C224.398 13.6811 221.667 11.6784 218.39 11.6784C214.521 11.6784 211.244 14.5004 209.788 18.1416C210.015 17.0948 210.152 15.7748 210.152 14.5914V11.9515C207.876 12.3156 205.373 12.4067 203.051 12.4067V13.0439C205.691 13.3625 206.42 15.0921 206.42 18.4147V28.4737C206.42 31.9329 205.327 33.0707 203.051 33.6624V34.2997C204.781 34.1176 206.465 34.0721 208.149 34.0721C209.833 34.0721 211.563 34.1176 213.247 34.2997V33.6624C210.698 33.2983 210.106 31.7053 210.106 28.4737V20.9636C210.106 17.5499 213.475 13.2715 216.934 13.2715C220.393 13.2715 220.575 17.4134 220.575 19.8712V28.3371C220.575 31.2956 219.801 33.1618 217.389 33.6624V34.2997C219.118 34.1176 220.803 34.0721 222.441 34.0721C224.125 34.0721 225.764 34.1176 227.357 34.2997V33.6624C224.762 33.0707 224.398 30.977 224.398 28.3371Z" fill="white"/>
<path d="M237.312 34.7548C242.319 34.7548 245.596 32.4335 245.596 28.3826C245.596 20.8726 234.308 22.5566 234.308 16.0934C234.308 13.9087 235.674 12.4977 237.676 12.4977C240.18 12.4977 241.909 14.9555 243.548 18.9609H244.185C244.413 17.1403 244.458 15.3197 244.504 13.499C242.501 12.1791 239.998 11.6784 238.223 11.6784C234.991 11.6784 231.122 13.317 231.122 17.6865C231.122 24.969 241.909 23.6035 241.955 29.8846C242 32.3425 240.18 33.9811 237.722 33.9811C234.809 33.9811 232.943 31.4777 231.395 27.3358H230.758C230.621 29.2019 230.576 31.0681 230.621 32.9342C232.26 34.2541 234.854 34.7548 237.312 34.7548Z" fill="white"/>
<path d="M54.3035 77.2997C55.76 77.2541 57.3986 77.2086 59.0371 77.2086C62.4053 77.2086 65.9555 77.2997 68.5954 77.2997C77.3344 77.2997 84.3893 70.9275 84.3893 61.5058C84.3893 51.6744 77.744 45.4387 67.8672 45.4387C65.5914 45.4387 62.8149 45.4843 60.1295 45.4843C58.2179 45.4843 56.3972 45.4843 54.4401 45.4387V46.076C58.0358 46.6677 58.5365 49.3531 58.5365 54.6329V68.1055C58.5365 73.4764 57.3986 76.1618 54.3035 76.6624V77.2997ZM68.8685 76.2528C67.7761 76.2528 66.3196 76.2073 65.4548 76.1618C63.1335 75.9342 62.1777 73.7494 62.1777 69.5165V46.5766C63.7708 46.5311 65.7279 46.4856 67.503 46.4856C75.1497 46.4856 79.6102 51.3103 79.6102 61.4602C79.6102 71.5192 74.649 76.1163 68.8685 76.2528Z" fill="white"/>
<path d="M99.4571 76.3894C94.9511 76.3894 92.9029 72.1564 92.9029 66.2849V65.147H107.695C107.604 57.1818 102.871 54.6784 98.6378 54.6784C92.8574 54.6784 88.6699 59.2755 88.6699 66.3304C88.6699 74.1136 93.7677 77.8458 98.6378 77.8458C102.825 77.8458 106.284 75.0694 107.377 70.882L106.467 70.6544C104.965 74.9784 102.006 76.3894 99.4571 76.3894ZM98.4103 55.4977C101.551 55.4977 103.144 58.8203 103.28 64.1457H92.9029C93.1305 60.2313 94.587 55.4977 98.4103 55.4977Z" fill="white"/>
<path d="M118.301 77.7548C123.307 77.7548 126.584 75.4335 126.584 71.3826C126.584 63.8726 115.297 65.5566 115.297 59.0934C115.297 56.9087 116.662 55.4977 118.665 55.4977C121.168 55.4977 122.898 57.9555 124.536 61.9609H125.173C125.401 60.1403 125.447 58.3197 125.492 56.499C123.489 55.1791 120.986 54.6784 119.211 54.6784C115.979 54.6784 112.11 56.317 112.11 60.6865C112.11 67.969 122.898 66.6035 122.943 72.8847C122.989 75.3425 121.168 76.981 118.71 76.981C115.797 76.981 113.931 74.4777 112.384 70.3358H111.746C111.61 72.2019 111.564 74.068 111.61 75.9342C113.248 77.2541 115.843 77.7548 118.301 77.7548Z" fill="white"/>
<path d="M135.222 50.7186C136.588 50.7186 137.726 49.6262 137.726 48.2607C137.726 46.8952 136.588 45.7574 135.222 45.7574C133.857 45.7574 132.719 46.8952 132.719 48.2607C132.719 49.6262 133.857 50.7186 135.222 50.7186ZM130.398 77.2997C132.036 77.1631 133.811 77.0721 135.587 77.0721C137.362 77.0721 139.137 77.1631 140.684 77.2997V76.6624C138.636 76.2073 137.316 74.9328 137.316 71.4281V54.9515C135.086 55.3156 132.537 55.4067 130.489 55.4067V56.0439C132.674 56.3625 133.857 58.1831 133.857 61.4602V71.4281C133.857 74.8873 132.218 76.2528 130.398 76.6624V77.2997Z" fill="white"/>
<path d="M164.583 54.5874C165.311 54.5874 165.948 54.815 166.494 55.2246L166.859 54.7694C166.13 53.3585 165.402 52.084 164.492 50.8096C162.353 52.2661 160.851 54.815 160.259 56.9542C158.575 55.4977 156.208 54.7239 153.75 54.7239C149.062 54.7239 144.829 57.5459 144.829 62.7347C144.829 65.7842 146.286 68.06 148.47 69.3799C146.968 70.0627 145.011 71.5192 145.011 73.7039C145.011 75.2059 145.967 76.8445 148.379 77.6183C145.375 78.4376 142.872 80.6223 142.872 83.2167C142.872 86.7214 147.105 89.3613 153.659 89.3613C160.259 89.3613 165.266 86.7214 165.266 81.8967C165.266 77.6638 161.351 74.9328 155.343 74.9328H150.245C147.833 74.9328 146.968 73.7494 146.968 72.7481C146.968 71.5192 147.788 70.4723 149.29 69.8351C150.61 70.4723 152.203 70.7909 153.841 70.7909C158.62 70.7909 162.762 67.9235 162.762 62.7802C162.762 60.5954 162.034 58.8658 160.851 57.5459C161.442 55.7708 162.899 54.5874 164.583 54.5874ZM153.841 70.0172C150.746 70.0172 148.971 67.2407 148.971 62.7347C148.971 58.2741 150.746 55.4977 153.75 55.4977C156.8 55.4977 158.62 58.2741 158.62 62.7802C158.62 67.2407 156.891 70.0172 153.841 70.0172ZM154.478 78.1189C158.848 78.1189 161.761 79.6665 161.761 82.7615C161.761 86.3117 158.256 88.451 153.75 88.451C149.29 88.451 146.559 86.2207 146.559 82.8981C146.559 80.9864 147.605 78.9382 149.836 77.9824C150.473 78.0734 151.11 78.1189 151.884 78.1189H154.478Z" fill="white"/>
<path d="M190.15 71.3371V62.5526C190.15 56.6811 187.42 54.6784 184.142 54.6784C180.274 54.6784 176.996 57.5004 175.54 61.1416C175.768 60.0948 175.904 58.7748 175.904 57.5914V54.9515C173.628 55.3156 171.125 55.4067 168.804 55.4067V56.0439C171.444 56.3625 172.172 58.0921 172.172 61.4147V71.4737C172.172 74.9328 171.079 76.0707 168.804 76.6624V77.2997C170.533 77.1176 172.217 77.0721 173.901 77.0721C175.586 77.0721 177.315 77.1176 178.999 77.2997V76.6624C176.45 76.2983 175.859 74.7053 175.859 71.4737V63.9636C175.859 60.5499 179.227 56.2715 182.686 56.2715C186.145 56.2715 186.327 60.4134 186.327 62.8712V71.3371C186.327 74.2956 185.553 76.1618 183.141 76.6624V77.2997C184.871 77.1176 186.555 77.0721 188.193 77.0721C189.877 77.0721 191.516 77.1176 193.109 77.2997V76.6624C190.515 76.0707 190.15 73.977 190.15 71.3371Z" fill="white"/>
</svg>
