<svg width="189" height="25" viewBox="0 0 189 25" fill="none" xmlns="http://www.w3.org/2000/svg">
<path d="M3.9127 24.6019H6.36354L13.9611 7.62106C14.5563 6.22058 15.8168 3.17454 16.342 2.05416L16.7971 7.58605L18.1626 24.6019H20.5434L32.2024 0.443604H30.2417L22.224 17.4944C20.1583 21.7659 20.2633 21.6609 19.7031 22.8863C19.528 19.5952 19.423 18.9649 19.318 17.4944L17.9875 0.443604H15.3966L7.79903 17.4594C6.08344 21.3108 6.04843 21.5558 5.41821 23.0263C5.24315 21.4858 4.99807 18.5798 4.85802 17.4594L2.79231 0.443604H0.796631L3.9127 24.6019Z" fill="white"/>
<path d="M47.9452 7.55104L48.2603 5.76543H34.8507L31.3495 24.6019H44.8641L45.1793 22.8513H33.4852L34.8157 15.6738H45.0742L45.3893 13.9232H35.1658L36.3562 7.55104H47.9452Z" fill="white"/>
<path d="M63.5734 14.5884C65.6741 13.7832 66.5144 12.3477 66.5144 10.1769C66.5144 7.41099 64.5537 5.76543 61.0175 5.76543H53.2799L49.7787 24.6019H58.9868C63.3633 24.6019 66.1293 22.2561 66.1293 18.5448C66.1293 16.6542 65.324 15.2537 63.5734 14.5884ZM60.5274 7.55104C63.2583 7.55104 64.6588 8.3213 64.6588 10.317C64.6588 12.3827 63.0832 13.8532 60.0722 13.8532H53.595L54.7854 7.55104H60.5274ZM59.3369 22.7462H51.9494L53.2799 15.6388H60.1422C62.348 15.6388 64.2736 16.199 64.2736 18.8599C64.2736 21.2407 62.6981 22.7462 59.3369 22.7462Z" fill="white"/>
<path d="M89.267 0.443604H82.5097L78.0282 24.6019H85.8008C94.7289 24.6019 100.366 19.175 100.366 10.8072C100.366 4.2249 96.5145 0.443604 89.267 0.443604ZM86.186 22.8863H80.1639L84.0152 2.15919H88.8119C95.079 2.15919 98.4752 5.1002 98.4752 10.8072C98.4752 18.1597 93.7485 22.8863 86.186 22.8863Z" fill="white"/>
<path d="M119.268 7.55104L119.584 5.76543H106.174L102.673 24.6019H116.187L116.503 22.8513H104.808L106.139 15.6738H116.397L116.713 13.9232H106.489L107.679 7.55104H119.268Z" fill="white"/>
<path d="M128.034 24.882C133.321 24.882 136.227 22.9213 136.227 19.035C136.227 15.9889 134.056 14.7635 131.325 14.3784L128.454 13.9232C126.669 13.6431 124.603 13.1179 124.603 10.8772C124.603 8.42634 126.634 7.20092 130.065 7.20092C133.216 7.20092 135.912 8.35631 135.492 11.6825H137.207C137.873 7.48101 134.582 5.48533 130.38 5.48533C126.039 5.48533 122.783 7.27094 122.783 11.1923C122.783 13.8532 124.743 15.2537 127.369 15.6738L130.345 16.129C132.061 16.4091 134.406 16.8292 134.406 19.2801C134.406 22.2561 131.746 23.1664 128.454 23.1664C124.708 23.1664 122.082 22.011 122.432 18.7899H120.647C119.912 23.2014 123.343 24.882 128.034 24.882Z" fill="white"/>
<path d="M139.976 24.6019H141.796L145.297 5.76543H143.477L139.976 24.6019Z" fill="white"/>
<path d="M165.622 12.1376C165.797 7.51603 162.751 5.48533 158.515 5.48533C152.388 5.48533 148.221 10.282 148.221 16.8292C148.221 21.6259 150.952 24.882 156.274 24.882C159.88 24.882 161.946 23.9016 163.977 22.6412L165.377 14.9386H158.27L157.92 16.7592H163.242L162.331 21.6609C160.826 22.5012 159.285 23.0964 156.519 23.0964C152.598 23.0964 150.112 20.7856 150.112 16.6892C150.112 11.6124 152.598 7.30595 158.27 7.30595C161.351 7.30595 163.907 8.6014 163.767 12.1376H165.622Z" fill="white"/>
<path d="M175.38 11.2273L182.557 24.6019H184.693L188.194 5.76543H186.373L184.238 17.3894C184.063 18.2647 183.572 21.7659 183.467 22.7813C183.082 21.8009 182.592 20.3654 181.752 18.8949L174.469 5.76543H172.368L168.867 24.6019H170.723L172.964 12.6278C173.384 10.352 173.594 8.53137 173.699 7.51603C174.259 8.91651 174.679 9.86183 175.38 11.2273Z" fill="white"/>
</svg>
